<?xml version="1.0" encoding="us-ascii" standalone="no"?><svg xmlns="http://www.w3.org/2000/svg" xmlns:xlink="http://www.w3.org/1999/xlink" contentStyleType="text/css" height="1147px" preserveAspectRatio="none" style="width:3160px;height:1147px;background:#FFFFFF;" version="1.1" viewBox="0 0 3160 1147" width="3160px" zoomAndPan="magnify"><defs/><g><text fill="#000000" font-family="sans-serif" font-size="14" font-weight="bold" lengthAdjust="spacing" textLength="295" x="1425.5" y="24.5332">Refactored Architecture (Design Patterns)</text><!--cluster Models--><g id="cluster_Models"><path d="M305,44.6094 L358,44.6094 A3.75,3.75 0 0 1 360.5,47.1094 L367.5,68.2188 L827,68.2188 A2.5,2.5 0 0 1 829.5,70.7188 L829.5,480.1094 A2.5,2.5 0 0 1 827,482.6094 L305,482.6094 A2.5,2.5 0 0 1 302.5,480.1094 L302.5,47.1094 A2.5,2.5 0 0 1 305,44.6094 " fill="none" style="stroke:#000000;stroke-width:1.5;"/><line style="stroke:#000000;stroke-width:1.5;" x1="302.5" x2="367.5" y1="68.2188" y2="68.2188"/><text fill="#000000" font-family="sans-serif" font-size="14" font-weight="bold" lengthAdjust="spacing" textLength="52" x="306.5" y="61.1426">Models</text></g><!--cluster Repositories--><g id="cluster_Repositories"><path d="M234,548.6094 L325,548.6094 A3.75,3.75 0 0 1 327.5,551.1094 L334.5,572.2188 L913,572.2188 A2.5,2.5 0 0 1 915.5,574.7188 L915.5,976.1094 A2.5,2.5 0 0 1 913,978.6094 L234,978.6094 A2.5,2.5 0 0 1 231.5,976.1094 L231.5,551.1094 A2.5,2.5 0 0 1 234,548.6094 " fill="none" style="stroke:#000000;stroke-width:1.5;"/><line style="stroke:#000000;stroke-width:1.5;" x1="231.5" x2="334.5" y1="572.2188" y2="572.2188"/><text fill="#000000" font-family="sans-serif" font-size="14" font-weight="bold" lengthAdjust="spacing" textLength="90" x="235.5" y="565.1426">Repositories</text></g><!--cluster Strategies--><g id="cluster_Strategies"><path d="M2131,809.6094 L2204,809.6094 A3.75,3.75 0 0 1 2206.5,812.1094 L2213.5,833.2188 L2496,833.2188 A2.5,2.5 0 0 1 2498.5,835.7188 L2498.5,1138.1094 A2.5,2.5 0 0 1 2496,1140.6094 L2131,1140.6094 A2.5,2.5 0 0 1 2128.5,1138.1094 L2128.5,812.1094 A2.5,2.5 0 0 1 2131,809.6094 " fill="none" style="stroke:#000000;stroke-width:1.5;"/><line style="stroke:#000000;stroke-width:1.5;" x1="2128.5" x2="2213.5" y1="833.2188" y2="833.2188"/><text fill="#000000" font-family="sans-serif" font-size="14" font-weight="bold" lengthAdjust="spacing" textLength="72" x="2132.5" y="826.1426">Strategies</text></g><!--cluster Services--><g id="cluster_Services"><path d="M1397,557.6094 L1460,557.6094 A3.75,3.75 0 0 1 1462.5,560.1094 L1469.5,581.2188 L2037,581.2188 A2.5,2.5 0 0 1 2039.5,583.7188 L2039.5,741.1094 A2.5,2.5 0 0 1 2037,743.6094 L1397,743.6094 A2.5,2.5 0 0 1 1394.5,741.1094 L1394.5,560.1094 A2.5,2.5 0 0 1 1397,557.6094 " fill="none" style="stroke:#000000;stroke-width:1.5;"/><line style="stroke:#000000;stroke-width:1.5;" x1="1394.5" x2="1469.5" y1="581.2188" y2="581.2188"/><text fill="#000000" font-family="sans-serif" font-size="14" font-weight="bold" lengthAdjust="spacing" textLength="62" x="1398.5" y="574.1426">Services</text></g><!--cluster Blueprints--><g id="cluster_Blueprints"><path d="M2082,278.6094 L2156,278.6094 A3.75,3.75 0 0 1 2158.5,281.1094 L2165.5,302.2188 L2815,302.2188 A2.5,2.5 0 0 1 2817.5,304.7188 L2817.5,715.1094 A2.5,2.5 0 0 1 2815,717.6094 L2082,717.6094 A2.5,2.5 0 0 1 2079.5,715.1094 L2079.5,281.1094 A2.5,2.5 0 0 1 2082,278.6094 " fill="none" style="stroke:#000000;stroke-width:1.5;"/><line style="stroke:#000000;stroke-width:1.5;" x1="2079.5" x2="2165.5" y1="302.2188" y2="302.2188"/><text fill="#000000" font-family="sans-serif" font-size="14" font-weight="bold" lengthAdjust="spacing" textLength="73" x="2083.5" y="295.1426">Blueprints</text></g><!--class Product--><g id="elem_Product"><rect codeLine="4" fill="#F1F1F1" height="153.6563" id="Product" rx="2.5" ry="2.5" style="stroke:#181818;stroke-width:0.5;" width="94" x="695.5" y="304.6094"/><ellipse cx="716.35" cy="320.6094" fill="#ADD1B2" rx="11" ry="11" style="stroke:#181818;stroke-width:1.0;"/><path d="M719.1156,316.4844 Q719.2719,316.2656 719.4594,316.1563 Q719.6469,316.0469 719.8656,316.0469 Q720.2406,316.0469 720.475,316.3125 Q720.7094,316.5625 720.7094,317.1719 L720.7094,318.625 Q720.7094,319.2344 720.475,319.5 Q720.2406,319.7656 719.8656,319.7656 Q719.5219,319.7656 719.3188,319.5625 Q719.1156,319.375 719.0063,318.8594 Q718.9594,318.5 718.7719,318.3125 Q718.4438,317.9375 717.8344,317.7188 Q717.225,317.5 716.6,317.5 Q715.8344,317.5 715.1938,317.8281 Q714.5688,318.1563 714.0688,318.9063 Q713.5844,319.6563 713.5844,320.6875 L713.5844,321.7813 Q713.5844,323.0156 714.475,323.8438 Q715.3656,324.6563 716.9594,324.6563 Q717.8969,324.6563 718.5531,324.4063 Q718.9438,324.25 719.3656,323.8125 Q719.6313,323.5469 719.7719,323.4688 Q719.9281,323.3906 720.1313,323.3906 Q720.4594,323.3906 720.7094,323.6563 Q720.975,323.9063 720.975,324.25 Q720.975,324.5938 720.6313,325 Q720.1313,325.5781 719.3344,325.9063 Q718.2563,326.3594 716.9594,326.3594 Q715.4438,326.3594 714.2406,325.7344 Q713.2563,325.2344 712.5688,324.1719 Q711.8813,323.0938 711.8813,321.8125 L711.8813,320.6563 Q711.8813,319.3281 712.4906,318.1875 Q713.1156,317.0313 714.2094,316.4219 Q715.3031,315.7969 716.5375,315.7969 Q717.2719,315.7969 717.9125,315.9688 Q718.5688,316.125 719.1156,316.4844 Z " fill="#000000"/><text fill="#000000" font-family="sans-serif" font-size="14" lengthAdjust="spacing" textLength="49" x="731.65" y="326.3379">Product</text><line style="stroke:#181818;stroke-width:0.5;" x1="696.5" x2="788.5" y1="336.6094" y2="336.6094"/><ellipse cx="706.5" cy="350.9141" fill="none" rx="3" ry="3" style="stroke:#038048;stroke-width:1.0;"/><text fill="#000000" font-family="sans-serif" font-size="14" lengthAdjust="spacing" textLength="11" x="715.5" y="355.1426">id</text><ellipse cx="706.5" cy="368.5234" fill="none" rx="3" ry="3" style="stroke:#038048;stroke-width:1.0;"/><text fill="#000000" font-family="sans-serif" font-size="14" lengthAdjust="spacing" textLength="35" x="715.5" y="372.752">name</text><ellipse cx="706.5" cy="386.1328" fill="none" rx="3" ry="3" style="stroke:#038048;stroke-width:1.0;"/><text fill="#000000" font-family="sans-serif" font-size="14" lengthAdjust="spacing" textLength="55" x="715.5" y="390.3613">category</text><ellipse cx="706.5" cy="403.7422" fill="none" rx="3" ry="3" style="stroke:#038048;stroke-width:1.0;"/><text fill="#000000" font-family="sans-serif" font-size="14" lengthAdjust="spacing" textLength="31" x="715.5" y="407.9707">price</text><line style="stroke:#181818;stroke-width:0.5;" x1="696.5" x2="788.5" y1="415.0469" y2="415.0469"/><ellipse cx="706.5" cy="429.3516" fill="#84BE84" rx="3" ry="3" style="stroke:#038048;stroke-width:1.0;"/><text fill="#000000" font-family="sans-serif" font-size="14" lengthAdjust="spacing" textLength="52" x="715.5" y="433.5801">to_dict()</text><ellipse cx="706.5" cy="446.9609" fill="#84BE84" rx="3" ry="3" style="stroke:#038048;stroke-width:1.0;"/><text fill="#000000" font-family="sans-serif" font-size="14" lengthAdjust="spacing" textLength="68" x="715.5" y="451.1895">from_dict()</text></g><!--class Category--><g id="elem_Category"><rect codeLine="13" fill="#F1F1F1" height="118.4375" id="Category" rx="2.5" ry="2.5" style="stroke:#181818;stroke-width:0.5;" width="94" x="530.5" y="322.6094"/><ellipse cx="547.3" cy="338.6094" fill="#ADD1B2" rx="11" ry="11" style="stroke:#181818;stroke-width:1.0;"/><path d="M550.0656,334.4844 Q550.2219,334.2656 550.4094,334.1563 Q550.5969,334.0469 550.8156,334.0469 Q551.1906,334.0469 551.425,334.3125 Q551.6594,334.5625 551.6594,335.1719 L551.6594,336.625 Q551.6594,337.2344 551.425,337.5 Q551.1906,337.7656 550.8156,337.7656 Q550.4719,337.7656 550.2688,337.5625 Q550.0656,337.375 549.9563,336.8594 Q549.9094,336.5 549.7219,336.3125 Q549.3938,335.9375 548.7844,335.7188 Q548.175,335.5 547.55,335.5 Q546.7844,335.5 546.1438,335.8281 Q545.5188,336.1563 545.0188,336.9063 Q544.5344,337.6563 544.5344,338.6875 L544.5344,339.7813 Q544.5344,341.0156 545.425,341.8438 Q546.3156,342.6563 547.9094,342.6563 Q548.8469,342.6563 549.5031,342.4063 Q549.8938,342.25 550.3156,341.8125 Q550.5813,341.5469 550.7219,341.4688 Q550.8781,341.3906 551.0813,341.3906 Q551.4094,341.3906 551.6594,341.6563 Q551.925,341.9063 551.925,342.25 Q551.925,342.5938 551.5813,343 Q551.0813,343.5781 550.2844,343.9063 Q549.2063,344.3594 547.9094,344.3594 Q546.3938,344.3594 545.1906,343.7344 Q544.2063,343.2344 543.5188,342.1719 Q542.8313,341.0938 542.8313,339.8125 L542.8313,338.6563 Q542.8313,337.3281 543.4406,336.1875 Q544.0656,335.0313 545.1594,334.4219 Q546.2531,333.7969 547.4875,333.7969 Q548.2219,333.7969 548.8625,333.9688 Q549.5188,334.125 550.0656,334.4844 Z " fill="#000000"/><text fill="#000000" font-family="sans-serif" font-size="14" lengthAdjust="spacing" textLength="58" x="561.7" y="344.3379">Category</text><line style="stroke:#181818;stroke-width:0.5;" x1="531.5" x2="623.5" y1="354.6094" y2="354.6094"/><ellipse cx="541.5" cy="368.9141" fill="none" rx="3" ry="3" style="stroke:#038048;stroke-width:1.0;"/><text fill="#000000" font-family="sans-serif" font-size="14" lengthAdjust="spacing" textLength="11" x="550.5" y="373.1426">id</text><ellipse cx="541.5" cy="386.5234" fill="none" rx="3" ry="3" style="stroke:#038048;stroke-width:1.0;"/><text fill="#000000" font-family="sans-serif" font-size="14" lengthAdjust="spacing" textLength="35" x="550.5" y="390.752">name</text><line style="stroke:#181818;stroke-width:0.5;" x1="531.5" x2="623.5" y1="397.8281" y2="397.8281"/><ellipse cx="541.5" cy="412.1328" fill="#84BE84" rx="3" ry="3" style="stroke:#038048;stroke-width:1.0;"/><text fill="#000000" font-family="sans-serif" font-size="14" lengthAdjust="spacing" textLength="52" x="550.5" y="416.3613">to_dict()</text><ellipse cx="541.5" cy="429.7422" fill="#84BE84" rx="3" ry="3" style="stroke:#038048;stroke-width:1.0;"/><text fill="#000000" font-family="sans-serif" font-size="14" lengthAdjust="spacing" textLength="68" x="550.5" y="433.9707">from_dict()</text></g><!--class Favorite--><g id="elem_Favorite"><rect codeLine="20" fill="#F1F1F1" height="118.4375" id="Favorite" rx="2.5" ry="2.5" style="stroke:#181818;stroke-width:0.5;" width="94" x="363.5" y="322.6094"/><ellipse cx="383" cy="338.6094" fill="#ADD1B2" rx="11" ry="11" style="stroke:#181818;stroke-width:1.0;"/><path d="M385.7656,334.4844 Q385.9219,334.2656 386.1094,334.1563 Q386.2969,334.0469 386.5156,334.0469 Q386.8906,334.0469 387.125,334.3125 Q387.3594,334.5625 387.3594,335.1719 L387.3594,336.625 Q387.3594,337.2344 387.125,337.5 Q386.8906,337.7656 386.5156,337.7656 Q386.1719,337.7656 385.9688,337.5625 Q385.7656,337.375 385.6563,336.8594 Q385.6094,336.5 385.4219,336.3125 Q385.0938,335.9375 384.4844,335.7188 Q383.875,335.5 383.25,335.5 Q382.4844,335.5 381.8438,335.8281 Q381.2188,336.1563 380.7188,336.9063 Q380.2344,337.6563 380.2344,338.6875 L380.2344,339.7813 Q380.2344,341.0156 381.125,341.8438 Q382.0156,342.6563 383.6094,342.6563 Q384.5469,342.6563 385.2031,342.4063 Q385.5938,342.25 386.0156,341.8125 Q386.2813,341.5469 386.4219,341.4688 Q386.5781,341.3906 386.7813,341.3906 Q387.1094,341.3906 387.3594,341.6563 Q387.625,341.9063 387.625,342.25 Q387.625,342.5938 387.2813,343 Q386.7813,343.5781 385.9844,343.9063 Q384.9063,344.3594 383.6094,344.3594 Q382.0938,344.3594 380.8906,343.7344 Q379.9063,343.2344 379.2188,342.1719 Q378.5313,341.0938 378.5313,339.8125 L378.5313,338.6563 Q378.5313,337.3281 379.1406,336.1875 Q379.7656,335.0313 380.8594,334.4219 Q381.9531,333.7969 383.1875,333.7969 Q383.9219,333.7969 384.5625,333.9688 Q385.2188,334.125 385.7656,334.4844 Z " fill="#000000"/><text fill="#000000" font-family="sans-serif" font-size="14" lengthAdjust="spacing" textLength="52" x="398" y="344.3379">Favorite</text><line style="stroke:#181818;stroke-width:0.5;" x1="364.5" x2="456.5" y1="354.6094" y2="354.6094"/><ellipse cx="374.5" cy="368.9141" fill="none" rx="3" ry="3" style="stroke:#038048;stroke-width:1.0;"/><text fill="#000000" font-family="sans-serif" font-size="14" lengthAdjust="spacing" textLength="47" x="383.5" y="373.1426">user_id</text><ellipse cx="374.5" cy="386.5234" fill="none" rx="3" ry="3" style="stroke:#038048;stroke-width:1.0;"/><text fill="#000000" font-family="sans-serif" font-size="14" lengthAdjust="spacing" textLength="67" x="383.5" y="390.752">product_id</text><line style="stroke:#181818;stroke-width:0.5;" x1="364.5" x2="456.5" y1="397.8281" y2="397.8281"/><ellipse cx="374.5" cy="412.1328" fill="#84BE84" rx="3" ry="3" style="stroke:#038048;stroke-width:1.0;"/><text fill="#000000" font-family="sans-serif" font-size="14" lengthAdjust="spacing" textLength="52" x="383.5" y="416.3613">to_dict()</text><ellipse cx="374.5" cy="429.7422" fill="#84BE84" rx="3" ry="3" style="stroke:#038048;stroke-width:1.0;"/><text fill="#000000" font-family="sans-serif" font-size="14" lengthAdjust="spacing" textLength="68" x="383.5" y="433.9707">from_dict()</text></g><!--class ProductBuilder--><g id="elem_ProductBuilder"><rect codeLine="27" fill="#F1F1F1" height="118.4375" id="ProductBuilder" rx="2.5" ry="2.5" style="stroke:#181818;stroke-width:0.5;" width="125" x="680" y="88.6094"/><ellipse cx="695" cy="104.6094" fill="#ADD1B2" rx="11" ry="11" style="stroke:#181818;stroke-width:1.0;"/><path d="M697.7656,100.4844 Q697.9219,100.2656 698.1094,100.1563 Q698.2969,100.0469 698.5156,100.0469 Q698.8906,100.0469 699.125,100.3125 Q699.3594,100.5625 699.3594,101.1719 L699.3594,102.625 Q699.3594,103.2344 699.125,103.5 Q698.8906,103.7656 698.5156,103.7656 Q698.1719,103.7656 697.9688,103.5625 Q697.7656,103.375 697.6563,102.8594 Q697.6094,102.5 697.4219,102.3125 Q697.0938,101.9375 696.4844,101.7188 Q695.875,101.5 695.25,101.5 Q694.4844,101.5 693.8438,101.8281 Q693.2188,102.1563 692.7188,102.9063 Q692.2344,103.6563 692.2344,104.6875 L692.2344,105.7813 Q692.2344,107.0156 693.125,107.8438 Q694.0156,108.6563 695.6094,108.6563 Q696.5469,108.6563 697.2031,108.4063 Q697.5938,108.25 698.0156,107.8125 Q698.2813,107.5469 698.4219,107.4688 Q698.5781,107.3906 698.7813,107.3906 Q699.1094,107.3906 699.3594,107.6563 Q699.625,107.9063 699.625,108.25 Q699.625,108.5938 699.2813,109 Q698.7813,109.5781 697.9844,109.9063 Q696.9063,110.3594 695.6094,110.3594 Q694.0938,110.3594 692.8906,109.7344 Q691.9063,109.2344 691.2188,108.1719 Q690.5313,107.0938 690.5313,105.8125 L690.5313,104.6563 Q690.5313,103.3281 691.1406,102.1875 Q691.7656,101.0313 692.8594,100.4219 Q693.9531,99.7969 695.1875,99.7969 Q695.9219,99.7969 696.5625,99.9688 Q697.2188,100.125 697.7656,100.4844 Z " fill="#000000"/><text fill="#000000" font-family="sans-serif" font-size="14" lengthAdjust="spacing" textLength="93" x="709" y="110.3379">ProductBuilder</text><line style="stroke:#181818;stroke-width:0.5;" x1="681" x2="804" y1="120.6094" y2="120.6094"/><line style="stroke:#181818;stroke-width:0.5;" x1="681" x2="804" y1="128.6094" y2="128.6094"/><ellipse cx="691" cy="142.9141" fill="#84BE84" rx="3" ry="3" style="stroke:#038048;stroke-width:1.0;"/><text fill="#000000" font-family="sans-serif" font-size="14" lengthAdjust="spacing" textLength="72" x="700" y="147.1426">set_name()</text><ellipse cx="691" cy="160.5234" fill="#84BE84" rx="3" ry="3" style="stroke:#038048;stroke-width:1.0;"/><text fill="#000000" font-family="sans-serif" font-size="14" lengthAdjust="spacing" textLength="92" x="700" y="164.752">set_category()</text><ellipse cx="691" cy="178.1328" fill="#84BE84" rx="3" ry="3" style="stroke:#038048;stroke-width:1.0;"/><text fill="#000000" font-family="sans-serif" font-size="14" lengthAdjust="spacing" textLength="68" x="700" y="182.3613">set_price()</text><ellipse cx="691" cy="195.7422" fill="#84BE84" rx="3" ry="3" style="stroke:#038048;stroke-width:1.0;"/><text fill="#000000" font-family="sans-serif" font-size="14" lengthAdjust="spacing" textLength="40" x="700" y="199.9707">build()</text></g><!--class CategoryBuilder--><g id="elem_CategoryBuilder"><rect codeLine="34" fill="#F1F1F1" height="83.2188" id="CategoryBuilder" rx="2.5" ry="2.5" style="stroke:#181818;stroke-width:0.5;" width="134" x="510.5" y="106.1094"/><ellipse cx="525.5" cy="122.1094" fill="#ADD1B2" rx="11" ry="11" style="stroke:#181818;stroke-width:1.0;"/><path d="M528.2656,117.9844 Q528.4219,117.7656 528.6094,117.6563 Q528.7969,117.5469 529.0156,117.5469 Q529.3906,117.5469 529.625,117.8125 Q529.8594,118.0625 529.8594,118.6719 L529.8594,120.125 Q529.8594,120.7344 529.625,121 Q529.3906,121.2656 529.0156,121.2656 Q528.6719,121.2656 528.4688,121.0625 Q528.2656,120.875 528.1563,120.3594 Q528.1094,120 527.9219,119.8125 Q527.5938,119.4375 526.9844,119.2188 Q526.375,119 525.75,119 Q524.9844,119 524.3438,119.3281 Q523.7188,119.6563 523.2188,120.4063 Q522.7344,121.1563 522.7344,122.1875 L522.7344,123.2813 Q522.7344,124.5156 523.625,125.3438 Q524.5156,126.1563 526.1094,126.1563 Q527.0469,126.1563 527.7031,125.9063 Q528.0938,125.75 528.5156,125.3125 Q528.7813,125.0469 528.9219,124.9688 Q529.0781,124.8906 529.2813,124.8906 Q529.6094,124.8906 529.8594,125.1563 Q530.125,125.4063 530.125,125.75 Q530.125,126.0938 529.7813,126.5 Q529.2813,127.0781 528.4844,127.4063 Q527.4063,127.8594 526.1094,127.8594 Q524.5938,127.8594 523.3906,127.2344 Q522.4063,126.7344 521.7188,125.6719 Q521.0313,124.5938 521.0313,123.3125 L521.0313,122.1563 Q521.0313,120.8281 521.6406,119.6875 Q522.2656,118.5313 523.3594,117.9219 Q524.4531,117.2969 525.6875,117.2969 Q526.4219,117.2969 527.0625,117.4688 Q527.7188,117.625 528.2656,117.9844 Z " fill="#000000"/><text fill="#000000" font-family="sans-serif" font-size="14" lengthAdjust="spacing" textLength="102" x="539.5" y="127.8379">CategoryBuilder</text><line style="stroke:#181818;stroke-width:0.5;" x1="511.5" x2="643.5" y1="138.1094" y2="138.1094"/><line style="stroke:#181818;stroke-width:0.5;" x1="511.5" x2="643.5" y1="146.1094" y2="146.1094"/><ellipse cx="521.5" cy="160.4141" fill="#84BE84" rx="3" ry="3" style="stroke:#038048;stroke-width:1.0;"/><text fill="#000000" font-family="sans-serif" font-size="14" lengthAdjust="spacing" textLength="72" x="530.5" y="164.6426">set_name()</text><ellipse cx="521.5" cy="178.0234" fill="#84BE84" rx="3" ry="3" style="stroke:#038048;stroke-width:1.0;"/><text fill="#000000" font-family="sans-serif" font-size="14" lengthAdjust="spacing" textLength="40" x="530.5" y="182.252">build()</text></g><!--class FavoriteBuilder--><g id="elem_FavoriteBuilder"><rect codeLine="39" fill="#F1F1F1" height="100.8281" id="FavoriteBuilder" rx="2.5" ry="2.5" style="stroke:#181818;stroke-width:0.5;" width="130" x="345.5" y="97.1094"/><ellipse cx="361.4" cy="113.1094" fill="#ADD1B2" rx="11" ry="11" style="stroke:#181818;stroke-width:1.0;"/><path d="M364.1656,108.9844 Q364.3219,108.7656 364.5094,108.6563 Q364.6969,108.5469 364.9156,108.5469 Q365.2906,108.5469 365.525,108.8125 Q365.7594,109.0625 365.7594,109.6719 L365.7594,111.125 Q365.7594,111.7344 365.525,112 Q365.2906,112.2656 364.9156,112.2656 Q364.5719,112.2656 364.3688,112.0625 Q364.1656,111.875 364.0563,111.3594 Q364.0094,111 363.8219,110.8125 Q363.4938,110.4375 362.8844,110.2188 Q362.275,110 361.65,110 Q360.8844,110 360.2438,110.3281 Q359.6188,110.6563 359.1188,111.4063 Q358.6344,112.1563 358.6344,113.1875 L358.6344,114.2813 Q358.6344,115.5156 359.525,116.3438 Q360.4156,117.1563 362.0094,117.1563 Q362.9469,117.1563 363.6031,116.9063 Q363.9938,116.75 364.4156,116.3125 Q364.6813,116.0469 364.8219,115.9688 Q364.9781,115.8906 365.1813,115.8906 Q365.5094,115.8906 365.7594,116.1563 Q366.025,116.4063 366.025,116.75 Q366.025,117.0938 365.6813,117.5 Q365.1813,118.0781 364.3844,118.4063 Q363.3063,118.8594 362.0094,118.8594 Q360.4938,118.8594 359.2906,118.2344 Q358.3063,117.7344 357.6188,116.6719 Q356.9313,115.5938 356.9313,114.3125 L356.9313,113.1563 Q356.9313,111.8281 357.5406,110.6875 Q358.1656,109.5313 359.2594,108.9219 Q360.3531,108.2969 361.5875,108.2969 Q362.3219,108.2969 362.9625,108.4688 Q363.6188,108.625 364.1656,108.9844 Z " fill="#000000"/><text fill="#000000" font-family="sans-serif" font-size="14" lengthAdjust="spacing" textLength="96" x="375.6" y="118.8379">FavoriteBuilder</text><line style="stroke:#181818;stroke-width:0.5;" x1="346.5" x2="474.5" y1="129.1094" y2="129.1094"/><line style="stroke:#181818;stroke-width:0.5;" x1="346.5" x2="474.5" y1="137.1094" y2="137.1094"/><ellipse cx="356.5" cy="151.4141" fill="#84BE84" rx="3" ry="3" style="stroke:#038048;stroke-width:1.0;"/><text fill="#000000" font-family="sans-serif" font-size="14" lengthAdjust="spacing" textLength="84" x="365.5" y="155.6426">set_user_id()</text><ellipse cx="356.5" cy="169.0234" fill="#84BE84" rx="3" ry="3" style="stroke:#038048;stroke-width:1.0;"/><text fill="#000000" font-family="sans-serif" font-size="14" lengthAdjust="spacing" textLength="104" x="365.5" y="173.252">set_product_id()</text><ellipse cx="356.5" cy="186.6328" fill="#84BE84" rx="3" ry="3" style="stroke:#038048;stroke-width:1.0;"/><text fill="#000000" font-family="sans-serif" font-size="14" lengthAdjust="spacing" textLength="40" x="365.5" y="190.8613">build()</text></g><!--class IProductRepository--><g id="elem_IProductRepository"><rect codeLine="52" fill="#F1F1F1" height="136.0469" id="IProductRepository" rx="2.5" ry="2.5" style="stroke:#181818;stroke-width:0.5;" width="153" x="332" y="818.6094"/><ellipse cx="347" cy="834.6094" fill="#B4A7E5" rx="11" ry="11" style="stroke:#181818;stroke-width:1.0;"/><path d="M347.9531,831.25 L347.9531,837.9063 L349.6719,837.9063 Q350.2813,837.9063 350.5469,838.1406 Q350.8125,838.375 350.8125,838.7656 Q350.8125,839.1406 350.5469,839.375 Q350.2813,839.6094 349.6719,839.6094 L344.5313,839.6094 Q343.9219,839.6094 343.6563,839.375 Q343.3906,839.1406 343.3906,838.75 Q343.3906,838.375 343.6563,838.1406 Q343.9219,837.9063 344.5313,837.9063 L346.25,837.9063 L346.25,831.25 L344.5313,831.25 Q343.9219,831.25 343.6563,831.0156 Q343.3906,830.7813 343.3906,830.3906 Q343.3906,830.0156 343.6563,829.7813 Q343.9219,829.5469 344.5313,829.5469 L349.6719,829.5469 Q350.2813,829.5469 350.5469,829.7813 Q350.8125,830.0156 350.8125,830.3906 Q350.8125,830.7813 350.5469,831.0156 Q350.2813,831.25 349.6719,831.25 L347.9531,831.25 Z " fill="#000000"/><text fill="#000000" font-family="sans-serif" font-size="14" font-style="italic" lengthAdjust="spacing" textLength="121" x="361" y="840.3379">IProductRepository</text><line style="stroke:#181818;stroke-width:0.5;" x1="333" x2="484" y1="850.6094" y2="850.6094"/><line style="stroke:#181818;stroke-width:0.5;" x1="333" x2="484" y1="858.6094" y2="858.6094"/><ellipse cx="343" cy="872.9141" fill="#84BE84" rx="3" ry="3" style="stroke:#038048;stroke-width:1.0;"/><text fill="#000000" font-family="sans-serif" font-size="14" lengthAdjust="spacing" textLength="52" x="352" y="877.1426">get_all()</text><ellipse cx="343" cy="890.5234" fill="#84BE84" rx="3" ry="3" style="stroke:#038048;stroke-width:1.0;"/><text fill="#000000" font-family="sans-serif" font-size="14" lengthAdjust="spacing" textLength="72" x="352" y="894.752">get_by_id()</text><ellipse cx="343" cy="908.1328" fill="#84BE84" rx="3" ry="3" style="stroke:#038048;stroke-width:1.0;"/><text fill="#000000" font-family="sans-serif" font-size="14" lengthAdjust="spacing" textLength="116" x="352" y="912.3613">get_by_category()</text><ellipse cx="343" cy="925.7422" fill="#84BE84" rx="3" ry="3" style="stroke:#038048;stroke-width:1.0;"/><text fill="#000000" font-family="sans-serif" font-size="14" lengthAdjust="spacing" textLength="34" x="352" y="929.9707">add()</text><ellipse cx="343" cy="943.3516" fill="#84BE84" rx="3" ry="3" style="stroke:#038048;stroke-width:1.0;"/><text fill="#000000" font-family="sans-serif" font-size="14" lengthAdjust="spacing" textLength="62" x="352" y="947.5801">save_all()</text></g><!--class ICategoryRepository--><g id="elem_ICategoryRepository"><rect codeLine="60" fill="#F1F1F1" height="118.4375" id="ICategoryRepository" rx="2.5" ry="2.5" style="stroke:#181818;stroke-width:0.5;" width="162" x="710.5" y="827.6094"/><ellipse cx="725.5" cy="843.6094" fill="#B4A7E5" rx="11" ry="11" style="stroke:#181818;stroke-width:1.0;"/><path d="M726.4531,840.25 L726.4531,846.9063 L728.1719,846.9063 Q728.7813,846.9063 729.0469,847.1406 Q729.3125,847.375 729.3125,847.7656 Q729.3125,848.1406 729.0469,848.375 Q728.7813,848.6094 728.1719,848.6094 L723.0313,848.6094 Q722.4219,848.6094 722.1563,848.375 Q721.8906,848.1406 721.8906,847.75 Q721.8906,847.375 722.1563,847.1406 Q722.4219,846.9063 723.0313,846.9063 L724.75,846.9063 L724.75,840.25 L723.0313,840.25 Q722.4219,840.25 722.1563,840.0156 Q721.8906,839.7813 721.8906,839.3906 Q721.8906,839.0156 722.1563,838.7813 Q722.4219,838.5469 723.0313,838.5469 L728.1719,838.5469 Q728.7813,838.5469 729.0469,838.7813 Q729.3125,839.0156 729.3125,839.3906 Q729.3125,839.7813 729.0469,840.0156 Q728.7813,840.25 728.1719,840.25 L726.4531,840.25 Z " fill="#000000"/><text fill="#000000" font-family="sans-serif" font-size="14" font-style="italic" lengthAdjust="spacing" textLength="130" x="739.5" y="849.3379">ICategoryRepository</text><line style="stroke:#181818;stroke-width:0.5;" x1="711.5" x2="871.5" y1="859.6094" y2="859.6094"/><line style="stroke:#181818;stroke-width:0.5;" x1="711.5" x2="871.5" y1="867.6094" y2="867.6094"/><ellipse cx="721.5" cy="881.9141" fill="#84BE84" rx="3" ry="3" style="stroke:#038048;stroke-width:1.0;"/><text fill="#000000" font-family="sans-serif" font-size="14" lengthAdjust="spacing" textLength="52" x="730.5" y="886.1426">get_all()</text><ellipse cx="721.5" cy="899.5234" fill="#84BE84" rx="3" ry="3" style="stroke:#038048;stroke-width:1.0;"/><text fill="#000000" font-family="sans-serif" font-size="14" lengthAdjust="spacing" textLength="72" x="730.5" y="903.752">get_by_id()</text><ellipse cx="721.5" cy="917.1328" fill="#84BE84" rx="3" ry="3" style="stroke:#038048;stroke-width:1.0;"/><text fill="#000000" font-family="sans-serif" font-size="14" lengthAdjust="spacing" textLength="34" x="730.5" y="921.3613">add()</text><ellipse cx="721.5" cy="934.7422" fill="#84BE84" rx="3" ry="3" style="stroke:#038048;stroke-width:1.0;"/><text fill="#000000" font-family="sans-serif" font-size="14" lengthAdjust="spacing" textLength="62" x="730.5" y="938.9707">save_all()</text></g><!--class IFavoriteRepository--><g id="elem_IFavoriteRepository"><rect codeLine="67" fill="#F1F1F1" height="118.4375" id="IFavoriteRepository" rx="2.5" ry="2.5" style="stroke:#181818;stroke-width:0.5;" width="155" x="520" y="827.6094"/><ellipse cx="535" cy="843.6094" fill="#B4A7E5" rx="11" ry="11" style="stroke:#181818;stroke-width:1.0;"/><path d="M535.9531,840.25 L535.9531,846.9063 L537.6719,846.9063 Q538.2813,846.9063 538.5469,847.1406 Q538.8125,847.375 538.8125,847.7656 Q538.8125,848.1406 538.5469,848.375 Q538.2813,848.6094 537.6719,848.6094 L532.5313,848.6094 Q531.9219,848.6094 531.6563,848.375 Q531.3906,848.1406 531.3906,847.75 Q531.3906,847.375 531.6563,847.1406 Q531.9219,846.9063 532.5313,846.9063 L534.25,846.9063 L534.25,840.25 L532.5313,840.25 Q531.9219,840.25 531.6563,840.0156 Q531.3906,839.7813 531.3906,839.3906 Q531.3906,839.0156 531.6563,838.7813 Q531.9219,838.5469 532.5313,838.5469 L537.6719,838.5469 Q538.2813,838.5469 538.5469,838.7813 Q538.8125,839.0156 538.8125,839.3906 Q538.8125,839.7813 538.5469,840.0156 Q538.2813,840.25 537.6719,840.25 L535.9531,840.25 Z " fill="#000000"/><text fill="#000000" font-family="sans-serif" font-size="14" font-style="italic" lengthAdjust="spacing" textLength="123" x="549" y="849.3379">IFavoriteRepository</text><line style="stroke:#181818;stroke-width:0.5;" x1="521" x2="674" y1="859.6094" y2="859.6094"/><line style="stroke:#181818;stroke-width:0.5;" x1="521" x2="674" y1="867.6094" y2="867.6094"/><ellipse cx="531" cy="881.9141" fill="#84BE84" rx="3" ry="3" style="stroke:#038048;stroke-width:1.0;"/><text fill="#000000" font-family="sans-serif" font-size="14" lengthAdjust="spacing" textLength="52" x="540" y="886.1426">get_all()</text><ellipse cx="531" cy="899.5234" fill="#84BE84" rx="3" ry="3" style="stroke:#038048;stroke-width:1.0;"/><text fill="#000000" font-family="sans-serif" font-size="14" lengthAdjust="spacing" textLength="34" x="540" y="903.752">add()</text><ellipse cx="531" cy="917.1328" fill="#84BE84" rx="3" ry="3" style="stroke:#038048;stroke-width:1.0;"/><text fill="#000000" font-family="sans-serif" font-size="14" lengthAdjust="spacing" textLength="62" x="540" y="921.3613">save_all()</text><ellipse cx="531" cy="934.7422" fill="#84BE84" rx="3" ry="3" style="stroke:#038048;stroke-width:1.0;"/><text fill="#000000" font-family="sans-serif" font-size="14" lengthAdjust="spacing" textLength="57" x="540" y="938.9707">remove()</text></g><!--class JsonProductRepository--><g id="elem_JsonProductRepository"><rect codeLine="74" fill="#F1F1F1" height="136.0469" id="JsonProductRepository" rx="2.5" ry="2.5" style="stroke:#181818;stroke-width:0.5;" width="178" x="255.5" y="592.6094"/><ellipse cx="270.5" cy="608.6094" fill="#ADD1B2" rx="11" ry="11" style="stroke:#181818;stroke-width:1.0;"/><path d="M273.2656,604.4844 Q273.4219,604.2656 273.6094,604.1563 Q273.7969,604.0469 274.0156,604.0469 Q274.3906,604.0469 274.625,604.3125 Q274.8594,604.5625 274.8594,605.1719 L274.8594,606.625 Q274.8594,607.2344 274.625,607.5 Q274.3906,607.7656 274.0156,607.7656 Q273.6719,607.7656 273.4688,607.5625 Q273.2656,607.375 273.1563,606.8594 Q273.1094,606.5 272.9219,606.3125 Q272.5938,605.9375 271.9844,605.7188 Q271.375,605.5 270.75,605.5 Q269.9844,605.5 269.3438,605.8281 Q268.7188,606.1563 268.2188,606.9063 Q267.7344,607.6563 267.7344,608.6875 L267.7344,609.7813 Q267.7344,611.0156 268.625,611.8438 Q269.5156,612.6563 271.1094,612.6563 Q272.0469,612.6563 272.7031,612.4063 Q273.0938,612.25 273.5156,611.8125 Q273.7813,611.5469 273.9219,611.4688 Q274.0781,611.3906 274.2813,611.3906 Q274.6094,611.3906 274.8594,611.6563 Q275.125,611.9063 275.125,612.25 Q275.125,612.5938 274.7813,613 Q274.2813,613.5781 273.4844,613.9063 Q272.4063,614.3594 271.1094,614.3594 Q269.5938,614.3594 268.3906,613.7344 Q267.4063,613.2344 266.7188,612.1719 Q266.0313,611.0938 266.0313,609.8125 L266.0313,608.6563 Q266.0313,607.3281 266.6406,606.1875 Q267.2656,605.0313 268.3594,604.4219 Q269.4531,603.7969 270.6875,603.7969 Q271.4219,603.7969 272.0625,603.9688 Q272.7188,604.125 273.2656,604.4844 Z " fill="#000000"/><text fill="#000000" font-family="sans-serif" font-size="14" lengthAdjust="spacing" textLength="146" x="284.5" y="614.3379">JsonProductRepository</text><line style="stroke:#181818;stroke-width:0.5;" x1="256.5" x2="432.5" y1="624.6094" y2="624.6094"/><line style="stroke:#181818;stroke-width:0.5;" x1="256.5" x2="432.5" y1="632.6094" y2="632.6094"/><ellipse cx="266.5" cy="646.9141" fill="#84BE84" rx="3" ry="3" style="stroke:#038048;stroke-width:1.0;"/><text fill="#000000" font-family="sans-serif" font-size="14" lengthAdjust="spacing" textLength="52" x="275.5" y="651.1426">get_all()</text><ellipse cx="266.5" cy="664.5234" fill="#84BE84" rx="3" ry="3" style="stroke:#038048;stroke-width:1.0;"/><text fill="#000000" font-family="sans-serif" font-size="14" lengthAdjust="spacing" textLength="72" x="275.5" y="668.752">get_by_id()</text><ellipse cx="266.5" cy="682.1328" fill="#84BE84" rx="3" ry="3" style="stroke:#038048;stroke-width:1.0;"/><text fill="#000000" font-family="sans-serif" font-size="14" lengthAdjust="spacing" textLength="116" x="275.5" y="686.3613">get_by_category()</text><ellipse cx="266.5" cy="699.7422" fill="#84BE84" rx="3" ry="3" style="stroke:#038048;stroke-width:1.0;"/><text fill="#000000" font-family="sans-serif" font-size="14" lengthAdjust="spacing" textLength="34" x="275.5" y="703.9707">add()</text><ellipse cx="266.5" cy="717.3516" fill="#84BE84" rx="3" ry="3" style="stroke:#038048;stroke-width:1.0;"/><text fill="#000000" font-family="sans-serif" font-size="14" lengthAdjust="spacing" textLength="62" x="275.5" y="721.5801">save_all()</text></g><!--class JsonCategoryRepository--><g id="elem_JsonCategoryRepository"><rect codeLine="82" fill="#F1F1F1" height="118.4375" id="JsonCategoryRepository" rx="2.5" ry="2.5" style="stroke:#181818;stroke-width:0.5;" width="187" x="685" y="601.6094"/><ellipse cx="700" cy="617.6094" fill="#ADD1B2" rx="11" ry="11" style="stroke:#181818;stroke-width:1.0;"/><path d="M702.7656,613.4844 Q702.9219,613.2656 703.1094,613.1563 Q703.2969,613.0469 703.5156,613.0469 Q703.8906,613.0469 704.125,613.3125 Q704.3594,613.5625 704.3594,614.1719 L704.3594,615.625 Q704.3594,616.2344 704.125,616.5 Q703.8906,616.7656 703.5156,616.7656 Q703.1719,616.7656 702.9688,616.5625 Q702.7656,616.375 702.6563,615.8594 Q702.6094,615.5 702.4219,615.3125 Q702.0938,614.9375 701.4844,614.7188 Q700.875,614.5 700.25,614.5 Q699.4844,614.5 698.8438,614.8281 Q698.2188,615.1563 697.7188,615.9063 Q697.2344,616.6563 697.2344,617.6875 L697.2344,618.7813 Q697.2344,620.0156 698.125,620.8438 Q699.0156,621.6563 700.6094,621.6563 Q701.5469,621.6563 702.2031,621.4063 Q702.5938,621.25 703.0156,620.8125 Q703.2813,620.5469 703.4219,620.4688 Q703.5781,620.3906 703.7813,620.3906 Q704.1094,620.3906 704.3594,620.6563 Q704.625,620.9063 704.625,621.25 Q704.625,621.5938 704.2813,622 Q703.7813,622.5781 702.9844,622.9063 Q701.9063,623.3594 700.6094,623.3594 Q699.0938,623.3594 697.8906,622.7344 Q696.9063,622.2344 696.2188,621.1719 Q695.5313,620.0938 695.5313,618.8125 L695.5313,617.6563 Q695.5313,616.3281 696.1406,615.1875 Q696.7656,614.0313 697.8594,613.4219 Q698.9531,612.7969 700.1875,612.7969 Q700.9219,612.7969 701.5625,612.9688 Q702.2188,613.125 702.7656,613.4844 Z " fill="#000000"/><text fill="#000000" font-family="sans-serif" font-size="14" lengthAdjust="spacing" textLength="155" x="714" y="623.3379">JsonCategoryRepository</text><line style="stroke:#181818;stroke-width:0.5;" x1="686" x2="871" y1="633.6094" y2="633.6094"/><line style="stroke:#181818;stroke-width:0.5;" x1="686" x2="871" y1="641.6094" y2="641.6094"/><ellipse cx="696" cy="655.9141" fill="#84BE84" rx="3" ry="3" style="stroke:#038048;stroke-width:1.0;"/><text fill="#000000" font-family="sans-serif" font-size="14" lengthAdjust="spacing" textLength="52" x="705" y="660.1426">get_all()</text><ellipse cx="696" cy="673.5234" fill="#84BE84" rx="3" ry="3" style="stroke:#038048;stroke-width:1.0;"/><text fill="#000000" font-family="sans-serif" font-size="14" lengthAdjust="spacing" textLength="72" x="705" y="677.752">get_by_id()</text><ellipse cx="696" cy="691.1328" fill="#84BE84" rx="3" ry="3" style="stroke:#038048;stroke-width:1.0;"/><text fill="#000000" font-family="sans-serif" font-size="14" lengthAdjust="spacing" textLength="34" x="705" y="695.3613">add()</text><ellipse cx="696" cy="708.7422" fill="#84BE84" rx="3" ry="3" style="stroke:#038048;stroke-width:1.0;"/><text fill="#000000" font-family="sans-serif" font-size="14" lengthAdjust="spacing" textLength="62" x="705" y="712.9707">save_all()</text></g><!--class JsonFavoriteRepository--><g id="elem_JsonFavoriteRepository"><rect codeLine="89" fill="#F1F1F1" height="118.4375" id="JsonFavoriteRepository" rx="2.5" ry="2.5" style="stroke:#181818;stroke-width:0.5;" width="181" x="469" y="601.6094"/><ellipse cx="484" cy="617.6094" fill="#ADD1B2" rx="11" ry="11" style="stroke:#181818;stroke-width:1.0;"/><path d="M486.7656,613.4844 Q486.9219,613.2656 487.1094,613.1563 Q487.2969,613.0469 487.5156,613.0469 Q487.8906,613.0469 488.125,613.3125 Q488.3594,613.5625 488.3594,614.1719 L488.3594,615.625 Q488.3594,616.2344 488.125,616.5 Q487.8906,616.7656 487.5156,616.7656 Q487.1719,616.7656 486.9688,616.5625 Q486.7656,616.375 486.6563,615.8594 Q486.6094,615.5 486.4219,615.3125 Q486.0938,614.9375 485.4844,614.7188 Q484.875,614.5 484.25,614.5 Q483.4844,614.5 482.8438,614.8281 Q482.2188,615.1563 481.7188,615.9063 Q481.2344,616.6563 481.2344,617.6875 L481.2344,618.7813 Q481.2344,620.0156 482.125,620.8438 Q483.0156,621.6563 484.6094,621.6563 Q485.5469,621.6563 486.2031,621.4063 Q486.5938,621.25 487.0156,620.8125 Q487.2813,620.5469 487.4219,620.4688 Q487.5781,620.3906 487.7813,620.3906 Q488.1094,620.3906 488.3594,620.6563 Q488.625,620.9063 488.625,621.25 Q488.625,621.5938 488.2813,622 Q487.7813,622.5781 486.9844,622.9063 Q485.9063,623.3594 484.6094,623.3594 Q483.0938,623.3594 481.8906,622.7344 Q480.9063,622.2344 480.2188,621.1719 Q479.5313,620.0938 479.5313,618.8125 L479.5313,617.6563 Q479.5313,616.3281 480.1406,615.1875 Q480.7656,614.0313 481.8594,613.4219 Q482.9531,612.7969 484.1875,612.7969 Q484.9219,612.7969 485.5625,612.9688 Q486.2188,613.125 486.7656,613.4844 Z " fill="#000000"/><text fill="#000000" font-family="sans-serif" font-size="14" lengthAdjust="spacing" textLength="149" x="498" y="623.3379">JsonFavoriteRepository</text><line style="stroke:#181818;stroke-width:0.5;" x1="470" x2="649" y1="633.6094" y2="633.6094"/><line style="stroke:#181818;stroke-width:0.5;" x1="470" x2="649" y1="641.6094" y2="641.6094"/><ellipse cx="480" cy="655.9141" fill="#84BE84" rx="3" ry="3" style="stroke:#038048;stroke-width:1.0;"/><text fill="#000000" font-family="sans-serif" font-size="14" lengthAdjust="spacing" textLength="52" x="489" y="660.1426">get_all()</text><ellipse cx="480" cy="673.5234" fill="#84BE84" rx="3" ry="3" style="stroke:#038048;stroke-width:1.0;"/><text fill="#000000" font-family="sans-serif" font-size="14" lengthAdjust="spacing" textLength="34" x="489" y="677.752">add()</text><ellipse cx="480" cy="691.1328" fill="#84BE84" rx="3" ry="3" style="stroke:#038048;stroke-width:1.0;"/><text fill="#000000" font-family="sans-serif" font-size="14" lengthAdjust="spacing" textLength="62" x="489" y="695.3613">save_all()</text><ellipse cx="480" cy="708.7422" fill="#84BE84" rx="3" ry="3" style="stroke:#038048;stroke-width:1.0;"/><text fill="#000000" font-family="sans-serif" font-size="14" lengthAdjust="spacing" textLength="57" x="489" y="712.9707">remove()</text></g><!--class IAuthStrategy--><g id="elem_IAuthStrategy"><rect codeLine="103" fill="#F1F1F1" height="65.6094" id="IAuthStrategy" rx="2.5" ry="2.5" style="stroke:#181818;stroke-width:0.5;" width="118" x="2337.5" y="1050.6094"/><ellipse cx="2352.5" cy="1066.6094" fill="#B4A7E5" rx="11" ry="11" style="stroke:#181818;stroke-width:1.0;"/><path d="M2353.4531,1063.25 L2353.4531,1069.9063 L2355.1719,1069.9063 Q2355.7813,1069.9063 2356.0469,1070.1406 Q2356.3125,1070.375 2356.3125,1070.7656 Q2356.3125,1071.1406 2356.0469,1071.375 Q2355.7813,1071.6094 2355.1719,1071.6094 L2350.0313,1071.6094 Q2349.4219,1071.6094 2349.1563,1071.375 Q2348.8906,1071.1406 2348.8906,1070.75 Q2348.8906,1070.375 2349.1563,1070.1406 Q2349.4219,1069.9063 2350.0313,1069.9063 L2351.75,1069.9063 L2351.75,1063.25 L2350.0313,1063.25 Q2349.4219,1063.25 2349.1563,1063.0156 Q2348.8906,1062.7813 2348.8906,1062.3906 Q2348.8906,1062.0156 2349.1563,1061.7813 Q2349.4219,1061.5469 2350.0313,1061.5469 L2355.1719,1061.5469 Q2355.7813,1061.5469 2356.0469,1061.7813 Q2356.3125,1062.0156 2356.3125,1062.3906 Q2356.3125,1062.7813 2356.0469,1063.0156 Q2355.7813,1063.25 2355.1719,1063.25 L2353.4531,1063.25 Z " fill="#000000"/><text fill="#000000" font-family="sans-serif" font-size="14" font-style="italic" lengthAdjust="spacing" textLength="86" x="2366.5" y="1072.3379">IAuthStrategy</text><line style="stroke:#181818;stroke-width:0.5;" x1="2338.5" x2="2454.5" y1="1082.6094" y2="1082.6094"/><line style="stroke:#181818;stroke-width:0.5;" x1="2338.5" x2="2454.5" y1="1090.6094" y2="1090.6094"/><ellipse cx="2348.5" cy="1104.9141" fill="#84BE84" rx="3" ry="3" style="stroke:#038048;stroke-width:1.0;"/><text fill="#000000" font-family="sans-serif" font-size="14" lengthAdjust="spacing" textLength="88" x="2357.5" y="1109.1426">authenticate()</text></g><!--class TokenAuthStrategy--><g id="elem_TokenAuthStrategy"><rect codeLine="107" fill="#F1F1F1" height="65.6094" id="TokenAuthStrategy" rx="2.5" ry="2.5" style="stroke:#181818;stroke-width:0.5;" width="154" x="2152.5" y="853.6094"/><ellipse cx="2167.5" cy="869.6094" fill="#ADD1B2" rx="11" ry="11" style="stroke:#181818;stroke-width:1.0;"/><path d="M2170.2656,865.4844 Q2170.4219,865.2656 2170.6094,865.1563 Q2170.7969,865.0469 2171.0156,865.0469 Q2171.3906,865.0469 2171.625,865.3125 Q2171.8594,865.5625 2171.8594,866.1719 L2171.8594,867.625 Q2171.8594,868.2344 2171.625,868.5 Q2171.3906,868.7656 2171.0156,868.7656 Q2170.6719,868.7656 2170.4688,868.5625 Q2170.2656,868.375 2170.1563,867.8594 Q2170.1094,867.5 2169.9219,867.3125 Q2169.5938,866.9375 2168.9844,866.7188 Q2168.375,866.5 2167.75,866.5 Q2166.9844,866.5 2166.3438,866.8281 Q2165.7188,867.1563 2165.2188,867.9063 Q2164.7344,868.6563 2164.7344,869.6875 L2164.7344,870.7813 Q2164.7344,872.0156 2165.625,872.8438 Q2166.5156,873.6563 2168.1094,873.6563 Q2169.0469,873.6563 2169.7031,873.4063 Q2170.0938,873.25 2170.5156,872.8125 Q2170.7813,872.5469 2170.9219,872.4688 Q2171.0781,872.3906 2171.2813,872.3906 Q2171.6094,872.3906 2171.8594,872.6563 Q2172.125,872.9063 2172.125,873.25 Q2172.125,873.5938 2171.7813,874 Q2171.2813,874.5781 2170.4844,874.9063 Q2169.4063,875.3594 2168.1094,875.3594 Q2166.5938,875.3594 2165.3906,874.7344 Q2164.4063,874.2344 2163.7188,873.1719 Q2163.0313,872.0938 2163.0313,870.8125 L2163.0313,869.6563 Q2163.0313,868.3281 2163.6406,867.1875 Q2164.2656,866.0313 2165.3594,865.4219 Q2166.4531,864.7969 2167.6875,864.7969 Q2168.4219,864.7969 2169.0625,864.9688 Q2169.7188,865.125 2170.2656,865.4844 Z " fill="#000000"/><text fill="#000000" font-family="sans-serif" font-size="14" lengthAdjust="spacing" textLength="122" x="2181.5" y="875.3379">TokenAuthStrategy</text><line style="stroke:#181818;stroke-width:0.5;" x1="2153.5" x2="2305.5" y1="885.6094" y2="885.6094"/><line style="stroke:#181818;stroke-width:0.5;" x1="2153.5" x2="2305.5" y1="893.6094" y2="893.6094"/><ellipse cx="2163.5" cy="907.9141" fill="#84BE84" rx="3" ry="3" style="stroke:#038048;stroke-width:1.0;"/><text fill="#000000" font-family="sans-serif" font-size="14" lengthAdjust="spacing" textLength="88" x="2172.5" y="912.1426">authenticate()</text></g><!--class AuthContext--><g id="elem_AuthContext"><rect codeLine="111" fill="#F1F1F1" height="65.6094" id="AuthContext" rx="2.5" ry="2.5" style="stroke:#181818;stroke-width:0.5;" width="114" x="2341.5" y="853.6094"/><ellipse cx="2358.75" cy="869.6094" fill="#ADD1B2" rx="11" ry="11" style="stroke:#181818;stroke-width:1.0;"/><path d="M2361.5156,865.4844 Q2361.6719,865.2656 2361.8594,865.1563 Q2362.0469,865.0469 2362.2656,865.0469 Q2362.6406,865.0469 2362.875,865.3125 Q2363.1094,865.5625 2363.1094,866.1719 L2363.1094,867.625 Q2363.1094,868.2344 2362.875,868.5 Q2362.6406,868.7656 2362.2656,868.7656 Q2361.9219,868.7656 2361.7188,868.5625 Q2361.5156,868.375 2361.4063,867.8594 Q2361.3594,867.5 2361.1719,867.3125 Q2360.8438,866.9375 2360.2344,866.7188 Q2359.625,866.5 2359,866.5 Q2358.2344,866.5 2357.5938,866.8281 Q2356.9688,867.1563 2356.4688,867.9063 Q2355.9844,868.6563 2355.9844,869.6875 L2355.9844,870.7813 Q2355.9844,872.0156 2356.875,872.8438 Q2357.7656,873.6563 2359.3594,873.6563 Q2360.2969,873.6563 2360.9531,873.4063 Q2361.3438,873.25 2361.7656,872.8125 Q2362.0313,872.5469 2362.1719,872.4688 Q2362.3281,872.3906 2362.5313,872.3906 Q2362.8594,872.3906 2363.1094,872.6563 Q2363.375,872.9063 2363.375,873.25 Q2363.375,873.5938 2363.0313,874 Q2362.5313,874.5781 2361.7344,874.9063 Q2360.6563,875.3594 2359.3594,875.3594 Q2357.8438,875.3594 2356.6406,874.7344 Q2355.6563,874.2344 2354.9688,873.1719 Q2354.2813,872.0938 2354.2813,870.8125 L2354.2813,869.6563 Q2354.2813,868.3281 2354.8906,867.1875 Q2355.5156,866.0313 2356.6094,865.4219 Q2357.7031,864.7969 2358.9375,864.7969 Q2359.6719,864.7969 2360.3125,864.9688 Q2360.9688,865.125 2361.5156,865.4844 Z " fill="#000000"/><text fill="#000000" font-family="sans-serif" font-size="14" lengthAdjust="spacing" textLength="77" x="2373.25" y="875.3379">AuthContext</text><line style="stroke:#181818;stroke-width:0.5;" x1="2342.5" x2="2454.5" y1="885.6094" y2="885.6094"/><line style="stroke:#181818;stroke-width:0.5;" x1="2342.5" x2="2454.5" y1="893.6094" y2="893.6094"/><ellipse cx="2352.5" cy="907.9141" fill="#84BE84" rx="3" ry="3" style="stroke:#038048;stroke-width:1.0;"/><text fill="#000000" font-family="sans-serif" font-size="14" lengthAdjust="spacing" textLength="88" x="2361.5" y="912.1426">authenticate()</text></g><!--class ProductService--><g id="elem_ProductService"><rect codeLine="121" fill="#F1F1F1" height="118.4375" id="ProductService" rx="2.5" ry="2.5" style="stroke:#181818;stroke-width:0.5;" width="205" x="1438" y="601.6094"/><ellipse cx="1488.25" cy="617.6094" fill="#ADD1B2" rx="11" ry="11" style="stroke:#181818;stroke-width:1.0;"/><path d="M1491.0156,613.4844 Q1491.1719,613.2656 1491.3594,613.1563 Q1491.5469,613.0469 1491.7656,613.0469 Q1492.1406,613.0469 1492.375,613.3125 Q1492.6094,613.5625 1492.6094,614.1719 L1492.6094,615.625 Q1492.6094,616.2344 1492.375,616.5 Q1492.1406,616.7656 1491.7656,616.7656 Q1491.4219,616.7656 1491.2188,616.5625 Q1491.0156,616.375 1490.9063,615.8594 Q1490.8594,615.5 1490.6719,615.3125 Q1490.3438,614.9375 1489.7344,614.7188 Q1489.125,614.5 1488.5,614.5 Q1487.7344,614.5 1487.0938,614.8281 Q1486.4688,615.1563 1485.9688,615.9063 Q1485.4844,616.6563 1485.4844,617.6875 L1485.4844,618.7813 Q1485.4844,620.0156 1486.375,620.8438 Q1487.2656,621.6563 1488.8594,621.6563 Q1489.7969,621.6563 1490.4531,621.4063 Q1490.8438,621.25 1491.2656,620.8125 Q1491.5313,620.5469 1491.6719,620.4688 Q1491.8281,620.3906 1492.0313,620.3906 Q1492.3594,620.3906 1492.6094,620.6563 Q1492.875,620.9063 1492.875,621.25 Q1492.875,621.5938 1492.5313,622 Q1492.0313,622.5781 1491.2344,622.9063 Q1490.1563,623.3594 1488.8594,623.3594 Q1487.3438,623.3594 1486.1406,622.7344 Q1485.1563,622.2344 1484.4688,621.1719 Q1483.7813,620.0938 1483.7813,618.8125 L1483.7813,617.6563 Q1483.7813,616.3281 1484.3906,615.1875 Q1485.0156,614.0313 1486.1094,613.4219 Q1487.2031,612.7969 1488.4375,612.7969 Q1489.1719,612.7969 1489.8125,612.9688 Q1490.4688,613.125 1491.0156,613.4844 Z " fill="#000000"/><text fill="#000000" font-family="sans-serif" font-size="14" lengthAdjust="spacing" textLength="96" x="1508.75" y="623.3379">ProductService</text><line style="stroke:#181818;stroke-width:0.5;" x1="1439" x2="1642" y1="633.6094" y2="633.6094"/><line style="stroke:#181818;stroke-width:0.5;" x1="1439" x2="1642" y1="641.6094" y2="641.6094"/><ellipse cx="1449" cy="655.9141" fill="#84BE84" rx="3" ry="3" style="stroke:#038048;stroke-width:1.0;"/><text fill="#000000" font-family="sans-serif" font-size="14" lengthAdjust="spacing" textLength="115" x="1458" y="660.1426">get_all_products()</text><ellipse cx="1449" cy="673.5234" fill="#84BE84" rx="3" ry="3" style="stroke:#038048;stroke-width:1.0;"/><text fill="#000000" font-family="sans-serif" font-size="14" lengthAdjust="spacing" textLength="128" x="1458" y="677.752">get_product_by_id()</text><ellipse cx="1449" cy="691.1328" fill="#84BE84" rx="3" ry="3" style="stroke:#038048;stroke-width:1.0;"/><text fill="#000000" font-family="sans-serif" font-size="14" lengthAdjust="spacing" textLength="179" x="1458" y="695.3613">get_products_by_category()</text><ellipse cx="1449" cy="708.7422" fill="#84BE84" rx="3" ry="3" style="stroke:#038048;stroke-width:1.0;"/><text fill="#000000" font-family="sans-serif" font-size="14" lengthAdjust="spacing" textLength="106" x="1458" y="712.9707">create_product()</text></g><!--class CategoryService--><g id="elem_CategoryService"><rect codeLine="128" fill="#F1F1F1" height="118.4375" id="CategoryService" rx="2.5" ry="2.5" style="stroke:#181818;stroke-width:0.5;" width="161" x="1854" y="601.6094"/><ellipse cx="1879.8" cy="617.6094" fill="#ADD1B2" rx="11" ry="11" style="stroke:#181818;stroke-width:1.0;"/><path d="M1882.5656,613.4844 Q1882.7219,613.2656 1882.9094,613.1563 Q1883.0969,613.0469 1883.3156,613.0469 Q1883.6906,613.0469 1883.925,613.3125 Q1884.1594,613.5625 1884.1594,614.1719 L1884.1594,615.625 Q1884.1594,616.2344 1883.925,616.5 Q1883.6906,616.7656 1883.3156,616.7656 Q1882.9719,616.7656 1882.7688,616.5625 Q1882.5656,616.375 1882.4563,615.8594 Q1882.4094,615.5 1882.2219,615.3125 Q1881.8938,614.9375 1881.2844,614.7188 Q1880.675,614.5 1880.05,614.5 Q1879.2844,614.5 1878.6438,614.8281 Q1878.0188,615.1563 1877.5188,615.9063 Q1877.0344,616.6563 1877.0344,617.6875 L1877.0344,618.7813 Q1877.0344,620.0156 1877.925,620.8438 Q1878.8156,621.6563 1880.4094,621.6563 Q1881.3469,621.6563 1882.0031,621.4063 Q1882.3938,621.25 1882.8156,620.8125 Q1883.0813,620.5469 1883.2219,620.4688 Q1883.3781,620.3906 1883.5813,620.3906 Q1883.9094,620.3906 1884.1594,620.6563 Q1884.425,620.9063 1884.425,621.25 Q1884.425,621.5938 1884.0813,622 Q1883.5813,622.5781 1882.7844,622.9063 Q1881.7063,623.3594 1880.4094,623.3594 Q1878.8938,623.3594 1877.6906,622.7344 Q1876.7063,622.2344 1876.0188,621.1719 Q1875.3313,620.0938 1875.3313,618.8125 L1875.3313,617.6563 Q1875.3313,616.3281 1875.9406,615.1875 Q1876.5656,614.0313 1877.6594,613.4219 Q1878.7531,612.7969 1879.9875,612.7969 Q1880.7219,612.7969 1881.3625,612.9688 Q1882.0188,613.125 1882.5656,613.4844 Z " fill="#000000"/><text fill="#000000" font-family="sans-serif" font-size="14" lengthAdjust="spacing" textLength="105" x="1896.2" y="623.3379">CategoryService</text><line style="stroke:#181818;stroke-width:0.5;" x1="1855" x2="2014" y1="633.6094" y2="633.6094"/><line style="stroke:#181818;stroke-width:0.5;" x1="1855" x2="2014" y1="641.6094" y2="641.6094"/><ellipse cx="1865" cy="655.9141" fill="#84BE84" rx="3" ry="3" style="stroke:#038048;stroke-width:1.0;"/><text fill="#000000" font-family="sans-serif" font-size="14" lengthAdjust="spacing" textLength="126" x="1874" y="660.1426">get_all_categories()</text><ellipse cx="1865" cy="673.5234" fill="#84BE84" rx="3" ry="3" style="stroke:#038048;stroke-width:1.0;"/><text fill="#000000" font-family="sans-serif" font-size="14" lengthAdjust="spacing" textLength="135" x="1874" y="677.752">get_category_by_id()</text><ellipse cx="1865" cy="691.1328" fill="#84BE84" rx="3" ry="3" style="stroke:#038048;stroke-width:1.0;"/><text fill="#000000" font-family="sans-serif" font-size="14" lengthAdjust="spacing" textLength="113" x="1874" y="695.3613">create_category()</text><ellipse cx="1865" cy="708.7422" fill="#84BE84" rx="3" ry="3" style="stroke:#038048;stroke-width:1.0;"/><text fill="#000000" font-family="sans-serif" font-size="14" lengthAdjust="spacing" textLength="112" x="1874" y="712.9707">delete_category()</text></g><!--class FavoriteService--><g id="elem_FavoriteService"><rect codeLine="135" fill="#F1F1F1" height="100.8281" id="FavoriteService" rx="2.5" ry="2.5" style="stroke:#181818;stroke-width:0.5;" width="140" x="1678.5" y="610.1094"/><ellipse cx="1697.55" cy="626.1094" fill="#ADD1B2" rx="11" ry="11" style="stroke:#181818;stroke-width:1.0;"/><path d="M1700.3156,621.9844 Q1700.4719,621.7656 1700.6594,621.6563 Q1700.8469,621.5469 1701.0656,621.5469 Q1701.4406,621.5469 1701.675,621.8125 Q1701.9094,622.0625 1701.9094,622.6719 L1701.9094,624.125 Q1701.9094,624.7344 1701.675,625 Q1701.4406,625.2656 1701.0656,625.2656 Q1700.7219,625.2656 1700.5188,625.0625 Q1700.3156,624.875 1700.2063,624.3594 Q1700.1594,624 1699.9719,623.8125 Q1699.6438,623.4375 1699.0344,623.2188 Q1698.425,623 1697.8,623 Q1697.0344,623 1696.3938,623.3281 Q1695.7688,623.6563 1695.2688,624.4063 Q1694.7844,625.1563 1694.7844,626.1875 L1694.7844,627.2813 Q1694.7844,628.5156 1695.675,629.3438 Q1696.5656,630.1563 1698.1594,630.1563 Q1699.0969,630.1563 1699.7531,629.9063 Q1700.1438,629.75 1700.5656,629.3125 Q1700.8313,629.0469 1700.9719,628.9688 Q1701.1281,628.8906 1701.3313,628.8906 Q1701.6594,628.8906 1701.9094,629.1563 Q1702.175,629.4063 1702.175,629.75 Q1702.175,630.0938 1701.8313,630.5 Q1701.3313,631.0781 1700.5344,631.4063 Q1699.4563,631.8594 1698.1594,631.8594 Q1696.6438,631.8594 1695.4406,631.2344 Q1694.4563,630.7344 1693.7688,629.6719 Q1693.0813,628.5938 1693.0813,627.3125 L1693.0813,626.1563 Q1693.0813,624.8281 1693.6906,623.6875 Q1694.3156,622.5313 1695.4094,621.9219 Q1696.5031,621.2969 1697.7375,621.2969 Q1698.4719,621.2969 1699.1125,621.4688 Q1699.7688,621.625 1700.3156,621.9844 Z " fill="#000000"/><text fill="#000000" font-family="sans-serif" font-size="14" lengthAdjust="spacing" textLength="99" x="1712.45" y="631.8379">FavoriteService</text><line style="stroke:#181818;stroke-width:0.5;" x1="1679.5" x2="1817.5" y1="642.1094" y2="642.1094"/><line style="stroke:#181818;stroke-width:0.5;" x1="1679.5" x2="1817.5" y1="650.1094" y2="650.1094"/><ellipse cx="1689.5" cy="664.4141" fill="#84BE84" rx="3" ry="3" style="stroke:#038048;stroke-width:1.0;"/><text fill="#000000" font-family="sans-serif" font-size="14" lengthAdjust="spacing" textLength="114" x="1698.5" y="668.6426">get_all_favorites()</text><ellipse cx="1689.5" cy="682.0234" fill="#84BE84" rx="3" ry="3" style="stroke:#038048;stroke-width:1.0;"/><text fill="#000000" font-family="sans-serif" font-size="14" lengthAdjust="spacing" textLength="89" x="1698.5" y="686.252">add_favorite()</text><ellipse cx="1689.5" cy="699.6328" fill="#84BE84" rx="3" ry="3" style="stroke:#038048;stroke-width:1.0;"/><text fill="#000000" font-family="sans-serif" font-size="14" lengthAdjust="spacing" textLength="112" x="1698.5" y="703.8613">remove_favorite()</text></g><!--class AuthDecorator--><g id="elem_AuthDecorator"><rect codeLine="151" fill="#F1F1F1" height="65.6094" id="AuthDecorator" rx="2.5" ry="2.5" style="stroke:#181818;stroke-width:0.5;" width="132" x="2318.5" y="627.6094"/><ellipse cx="2337.1" cy="643.6094" fill="#ADD1B2" rx="11" ry="11" style="stroke:#181818;stroke-width:1.0;"/><path d="M2339.8656,639.4844 Q2340.0219,639.2656 2340.2094,639.1563 Q2340.3969,639.0469 2340.6156,639.0469 Q2340.9906,639.0469 2341.225,639.3125 Q2341.4594,639.5625 2341.4594,640.1719 L2341.4594,641.625 Q2341.4594,642.2344 2341.225,642.5 Q2340.9906,642.7656 2340.6156,642.7656 Q2340.2719,642.7656 2340.0688,642.5625 Q2339.8656,642.375 2339.7563,641.8594 Q2339.7094,641.5 2339.5219,641.3125 Q2339.1938,640.9375 2338.5844,640.7188 Q2337.975,640.5 2337.35,640.5 Q2336.5844,640.5 2335.9438,640.8281 Q2335.3188,641.1563 2334.8188,641.9063 Q2334.3344,642.6563 2334.3344,643.6875 L2334.3344,644.7813 Q2334.3344,646.0156 2335.225,646.8438 Q2336.1156,647.6563 2337.7094,647.6563 Q2338.6469,647.6563 2339.3031,647.4063 Q2339.6938,647.25 2340.1156,646.8125 Q2340.3813,646.5469 2340.5219,646.4688 Q2340.6781,646.3906 2340.8813,646.3906 Q2341.2094,646.3906 2341.4594,646.6563 Q2341.725,646.9063 2341.725,647.25 Q2341.725,647.5938 2341.3813,648 Q2340.8813,648.5781 2340.0844,648.9063 Q2339.0063,649.3594 2337.7094,649.3594 Q2336.1938,649.3594 2334.9906,648.7344 Q2334.0063,648.2344 2333.3188,647.1719 Q2332.6313,646.0938 2332.6313,644.8125 L2332.6313,643.6563 Q2332.6313,642.3281 2333.2406,641.1875 Q2333.8656,640.0313 2334.9594,639.4219 Q2336.0531,638.7969 2337.2875,638.7969 Q2338.0219,638.7969 2338.6625,638.9688 Q2339.3188,639.125 2339.8656,639.4844 Z " fill="#000000"/><text fill="#000000" font-family="sans-serif" font-size="14" lengthAdjust="spacing" textLength="92" x="2351.9" y="649.3379">AuthDecorator</text><line style="stroke:#181818;stroke-width:0.5;" x1="2319.5" x2="2449.5" y1="659.6094" y2="659.6094"/><line style="stroke:#181818;stroke-width:0.5;" x1="2319.5" x2="2449.5" y1="667.6094" y2="667.6094"/><ellipse cx="2329.5" cy="681.9141" fill="#84BE84" rx="3" ry="3" style="stroke:#038048;stroke-width:1.0;"/><text fill="#000000" font-family="sans-serif" font-size="14" lengthAdjust="spacing" textLength="106" x="2338.5" y="686.1426">token_required()</text></g><!--class ProductsBlueprint--><g id="elem_ProductsBlueprint"><rect codeLine="155" fill="#F1F1F1" height="100.8281" id="ProductsBlueprint" rx="2.5" ry="2.5" style="stroke:#181818;stroke-width:0.5;" width="144" x="2122.5" y="331.1094"/><ellipse cx="2137.5" cy="347.1094" fill="#ADD1B2" rx="11" ry="11" style="stroke:#181818;stroke-width:1.0;"/><path d="M2140.2656,342.9844 Q2140.4219,342.7656 2140.6094,342.6563 Q2140.7969,342.5469 2141.0156,342.5469 Q2141.3906,342.5469 2141.625,342.8125 Q2141.8594,343.0625 2141.8594,343.6719 L2141.8594,345.125 Q2141.8594,345.7344 2141.625,346 Q2141.3906,346.2656 2141.0156,346.2656 Q2140.6719,346.2656 2140.4688,346.0625 Q2140.2656,345.875 2140.1563,345.3594 Q2140.1094,345 2139.9219,344.8125 Q2139.5938,344.4375 2138.9844,344.2188 Q2138.375,344 2137.75,344 Q2136.9844,344 2136.3438,344.3281 Q2135.7188,344.6563 2135.2188,345.4063 Q2134.7344,346.1563 2134.7344,347.1875 L2134.7344,348.2813 Q2134.7344,349.5156 2135.625,350.3438 Q2136.5156,351.1563 2138.1094,351.1563 Q2139.0469,351.1563 2139.7031,350.9063 Q2140.0938,350.75 2140.5156,350.3125 Q2140.7813,350.0469 2140.9219,349.9688 Q2141.0781,349.8906 2141.2813,349.8906 Q2141.6094,349.8906 2141.8594,350.1563 Q2142.125,350.4063 2142.125,350.75 Q2142.125,351.0938 2141.7813,351.5 Q2141.2813,352.0781 2140.4844,352.4063 Q2139.4063,352.8594 2138.1094,352.8594 Q2136.5938,352.8594 2135.3906,352.2344 Q2134.4063,351.7344 2133.7188,350.6719 Q2133.0313,349.5938 2133.0313,348.3125 L2133.0313,347.1563 Q2133.0313,345.8281 2133.6406,344.6875 Q2134.2656,343.5313 2135.3594,342.9219 Q2136.4531,342.2969 2137.6875,342.2969 Q2138.4219,342.2969 2139.0625,342.4688 Q2139.7188,342.625 2140.2656,342.9844 Z " fill="#000000"/><text fill="#000000" font-family="sans-serif" font-size="14" lengthAdjust="spacing" textLength="112" x="2151.5" y="352.8379">ProductsBlueprint</text><line style="stroke:#181818;stroke-width:0.5;" x1="2123.5" x2="2265.5" y1="363.1094" y2="363.1094"/><line style="stroke:#181818;stroke-width:0.5;" x1="2123.5" x2="2265.5" y1="371.1094" y2="371.1094"/><ellipse cx="2133.5" cy="385.4141" fill="#84BE84" rx="3" ry="3" style="stroke:#038048;stroke-width:1.0;"/><text fill="#000000" font-family="sans-serif" font-size="14" lengthAdjust="spacing" textLength="93" x="2142.5" y="389.6426">get_products()</text><ellipse cx="2133.5" cy="403.0234" fill="#84BE84" rx="3" ry="3" style="stroke:#038048;stroke-width:1.0;"/><text fill="#000000" font-family="sans-serif" font-size="14" lengthAdjust="spacing" textLength="86" x="2142.5" y="407.252">get_product()</text><ellipse cx="2133.5" cy="420.6328" fill="#84BE84" rx="3" ry="3" style="stroke:#038048;stroke-width:1.0;"/><text fill="#000000" font-family="sans-serif" font-size="14" lengthAdjust="spacing" textLength="106" x="2142.5" y="424.8613">create_product()</text></g><!--class CategoriesBlueprint--><g id="elem_CategoriesBlueprint"><rect codeLine="161" fill="#F1F1F1" height="118.4375" id="CategoriesBlueprint" rx="2.5" ry="2.5" style="stroke:#181818;stroke-width:0.5;" width="157" x="2302" y="322.6094"/><ellipse cx="2317" cy="338.6094" fill="#ADD1B2" rx="11" ry="11" style="stroke:#181818;stroke-width:1.0;"/><path d="M2319.7656,334.4844 Q2319.9219,334.2656 2320.1094,334.1563 Q2320.2969,334.0469 2320.5156,334.0469 Q2320.8906,334.0469 2321.125,334.3125 Q2321.3594,334.5625 2321.3594,335.1719 L2321.3594,336.625 Q2321.3594,337.2344 2321.125,337.5 Q2320.8906,337.7656 2320.5156,337.7656 Q2320.1719,337.7656 2319.9688,337.5625 Q2319.7656,337.375 2319.6563,336.8594 Q2319.6094,336.5 2319.4219,336.3125 Q2319.0938,335.9375 2318.4844,335.7188 Q2317.875,335.5 2317.25,335.5 Q2316.4844,335.5 2315.8438,335.8281 Q2315.2188,336.1563 2314.7188,336.9063 Q2314.2344,337.6563 2314.2344,338.6875 L2314.2344,339.7813 Q2314.2344,341.0156 2315.125,341.8438 Q2316.0156,342.6563 2317.6094,342.6563 Q2318.5469,342.6563 2319.2031,342.4063 Q2319.5938,342.25 2320.0156,341.8125 Q2320.2813,341.5469 2320.4219,341.4688 Q2320.5781,341.3906 2320.7813,341.3906 Q2321.1094,341.3906 2321.3594,341.6563 Q2321.625,341.9063 2321.625,342.25 Q2321.625,342.5938 2321.2813,343 Q2320.7813,343.5781 2319.9844,343.9063 Q2318.9063,344.3594 2317.6094,344.3594 Q2316.0938,344.3594 2314.8906,343.7344 Q2313.9063,343.2344 2313.2188,342.1719 Q2312.5313,341.0938 2312.5313,339.8125 L2312.5313,338.6563 Q2312.5313,337.3281 2313.1406,336.1875 Q2313.7656,335.0313 2314.8594,334.4219 Q2315.9531,333.7969 2317.1875,333.7969 Q2317.9219,333.7969 2318.5625,333.9688 Q2319.2188,334.125 2319.7656,334.4844 Z " fill="#000000"/><text fill="#000000" font-family="sans-serif" font-size="14" lengthAdjust="spacing" textLength="125" x="2331" y="344.3379">CategoriesBlueprint</text><line style="stroke:#181818;stroke-width:0.5;" x1="2303" x2="2458" y1="354.6094" y2="354.6094"/><line style="stroke:#181818;stroke-width:0.5;" x1="2303" x2="2458" y1="362.6094" y2="362.6094"/><ellipse cx="2313" cy="376.9141" fill="#84BE84" rx="3" ry="3" style="stroke:#038048;stroke-width:1.0;"/><text fill="#000000" font-family="sans-serif" font-size="14" lengthAdjust="spacing" textLength="104" x="2322" y="381.1426">get_categories()</text><ellipse cx="2313" cy="394.5234" fill="#84BE84" rx="3" ry="3" style="stroke:#038048;stroke-width:1.0;"/><text fill="#000000" font-family="sans-serif" font-size="14" lengthAdjust="spacing" textLength="93" x="2322" y="398.752">get_category()</text><ellipse cx="2313" cy="412.1328" fill="#84BE84" rx="3" ry="3" style="stroke:#038048;stroke-width:1.0;"/><text fill="#000000" font-family="sans-serif" font-size="14" lengthAdjust="spacing" textLength="113" x="2322" y="416.3613">create_category()</text><ellipse cx="2313" cy="429.7422" fill="#84BE84" rx="3" ry="3" style="stroke:#038048;stroke-width:1.0;"/><text fill="#000000" font-family="sans-serif" font-size="14" lengthAdjust="spacing" textLength="112" x="2322" y="433.9707">delete_category()</text></g><!--class FavoritesBlueprint--><g id="elem_FavoritesBlueprint"><rect codeLine="168" fill="#F1F1F1" height="100.8281" id="FavoritesBlueprint" rx="2.5" ry="2.5" style="stroke:#181818;stroke-width:0.5;" width="147" x="2494" y="331.1094"/><ellipse cx="2509" cy="347.1094" fill="#ADD1B2" rx="11" ry="11" style="stroke:#181818;stroke-width:1.0;"/><path d="M2511.7656,342.9844 Q2511.9219,342.7656 2512.1094,342.6563 Q2512.2969,342.5469 2512.5156,342.5469 Q2512.8906,342.5469 2513.125,342.8125 Q2513.3594,343.0625 2513.3594,343.6719 L2513.3594,345.125 Q2513.3594,345.7344 2513.125,346 Q2512.8906,346.2656 2512.5156,346.2656 Q2512.1719,346.2656 2511.9688,346.0625 Q2511.7656,345.875 2511.6563,345.3594 Q2511.6094,345 2511.4219,344.8125 Q2511.0938,344.4375 2510.4844,344.2188 Q2509.875,344 2509.25,344 Q2508.4844,344 2507.8438,344.3281 Q2507.2188,344.6563 2506.7188,345.4063 Q2506.2344,346.1563 2506.2344,347.1875 L2506.2344,348.2813 Q2506.2344,349.5156 2507.125,350.3438 Q2508.0156,351.1563 2509.6094,351.1563 Q2510.5469,351.1563 2511.2031,350.9063 Q2511.5938,350.75 2512.0156,350.3125 Q2512.2813,350.0469 2512.4219,349.9688 Q2512.5781,349.8906 2512.7813,349.8906 Q2513.1094,349.8906 2513.3594,350.1563 Q2513.625,350.4063 2513.625,350.75 Q2513.625,351.0938 2513.2813,351.5 Q2512.7813,352.0781 2511.9844,352.4063 Q2510.9063,352.8594 2509.6094,352.8594 Q2508.0938,352.8594 2506.8906,352.2344 Q2505.9063,351.7344 2505.2188,350.6719 Q2504.5313,349.5938 2504.5313,348.3125 L2504.5313,347.1563 Q2504.5313,345.8281 2505.1406,344.6875 Q2505.7656,343.5313 2506.8594,342.9219 Q2507.9531,342.2969 2509.1875,342.2969 Q2509.9219,342.2969 2510.5625,342.4688 Q2511.2188,342.625 2511.7656,342.9844 Z " fill="#000000"/><text fill="#000000" font-family="sans-serif" font-size="14" lengthAdjust="spacing" textLength="115" x="2523" y="352.8379">FavoritesBlueprint</text><line style="stroke:#181818;stroke-width:0.5;" x1="2495" x2="2640" y1="363.1094" y2="363.1094"/><line style="stroke:#181818;stroke-width:0.5;" x1="2495" x2="2640" y1="371.1094" y2="371.1094"/><ellipse cx="2505" cy="385.4141" fill="#84BE84" rx="3" ry="3" style="stroke:#038048;stroke-width:1.0;"/><text fill="#000000" font-family="sans-serif" font-size="14" lengthAdjust="spacing" textLength="92" x="2514" y="389.6426">get_favorites()</text><ellipse cx="2505" cy="403.0234" fill="#84BE84" rx="3" ry="3" style="stroke:#038048;stroke-width:1.0;"/><text fill="#000000" font-family="sans-serif" font-size="14" lengthAdjust="spacing" textLength="89" x="2514" y="407.252">add_favorite()</text><ellipse cx="2505" cy="420.6328" fill="#84BE84" rx="3" ry="3" style="stroke:#038048;stroke-width:1.0;"/><text fill="#000000" font-family="sans-serif" font-size="14" lengthAdjust="spacing" textLength="112" x="2514" y="424.8613">remove_favorite()</text></g><!--class AuthBlueprint--><g id="elem_AuthBlueprint"><rect codeLine="174" fill="#F1F1F1" height="65.6094" id="AuthBlueprint" rx="2.5" ry="2.5" style="stroke:#181818;stroke-width:0.5;" width="117" x="2676" y="348.6094"/><ellipse cx="2691" cy="364.6094" fill="#ADD1B2" rx="11" ry="11" style="stroke:#181818;stroke-width:1.0;"/><path d="M2693.7656,360.4844 Q2693.9219,360.2656 2694.1094,360.1563 Q2694.2969,360.0469 2694.5156,360.0469 Q2694.8906,360.0469 2695.125,360.3125 Q2695.3594,360.5625 2695.3594,361.1719 L2695.3594,362.625 Q2695.3594,363.2344 2695.125,363.5 Q2694.8906,363.7656 2694.5156,363.7656 Q2694.1719,363.7656 2693.9688,363.5625 Q2693.7656,363.375 2693.6563,362.8594 Q2693.6094,362.5 2693.4219,362.3125 Q2693.0938,361.9375 2692.4844,361.7188 Q2691.875,361.5 2691.25,361.5 Q2690.4844,361.5 2689.8438,361.8281 Q2689.2188,362.1563 2688.7188,362.9063 Q2688.2344,363.6563 2688.2344,364.6875 L2688.2344,365.7813 Q2688.2344,367.0156 2689.125,367.8438 Q2690.0156,368.6563 2691.6094,368.6563 Q2692.5469,368.6563 2693.2031,368.4063 Q2693.5938,368.25 2694.0156,367.8125 Q2694.2813,367.5469 2694.4219,367.4688 Q2694.5781,367.3906 2694.7813,367.3906 Q2695.1094,367.3906 2695.3594,367.6563 Q2695.625,367.9063 2695.625,368.25 Q2695.625,368.5938 2695.2813,369 Q2694.7813,369.5781 2693.9844,369.9063 Q2692.9063,370.3594 2691.6094,370.3594 Q2690.0938,370.3594 2688.8906,369.7344 Q2687.9063,369.2344 2687.2188,368.1719 Q2686.5313,367.0938 2686.5313,365.8125 L2686.5313,364.6563 Q2686.5313,363.3281 2687.1406,362.1875 Q2687.7656,361.0313 2688.8594,360.4219 Q2689.9531,359.7969 2691.1875,359.7969 Q2691.9219,359.7969 2692.5625,359.9688 Q2693.2188,360.125 2693.7656,360.4844 Z " fill="#000000"/><text fill="#000000" font-family="sans-serif" font-size="14" lengthAdjust="spacing" textLength="85" x="2705" y="370.3379">AuthBlueprint</text><line style="stroke:#181818;stroke-width:0.5;" x1="2677" x2="2792" y1="380.6094" y2="380.6094"/><line style="stroke:#181818;stroke-width:0.5;" x1="2677" x2="2792" y1="388.6094" y2="388.6094"/><ellipse cx="2687" cy="402.9141" fill="#84BE84" rx="3" ry="3" style="stroke:#038048;stroke-width:1.0;"/><text fill="#000000" font-family="sans-serif" font-size="14" lengthAdjust="spacing" textLength="40" x="2696" y="407.1426">login()</text></g><g id="elem_GMN12"><path d="M57.5,126.1094 L57.5,168.8125 L275.5,168.8125 L275.5,136.1094 L265.5,126.1094 L57.5,126.1094 " fill="#FEFFDD" style="stroke:#181818;stroke-width:0.5;"/><path d="M265.5,126.1094 L265.5,136.1094 L275.5,136.1094 L265.5,126.1094 " fill="#FEFFDD" style="stroke:#181818;stroke-width:1.0;"/><text fill="#000000" font-family="sans-serif" font-size="13" lengthAdjust="spacing" textLength="86" x="63.5" y="144.6045">Builder Pattern</text><text fill="#000000" font-family="sans-serif" font-size="13" lengthAdjust="spacing" textLength="197" x="63.5" y="160.9561">Constructores fluidos para objetos</text></g><g id="elem_GMN25"><path d="M6,639.1094 L6,681.8125 L207,681.8125 L207,649.1094 L197,639.1094 L6,639.1094 " fill="#FEFFDD" style="stroke:#181818;stroke-width:0.5;"/><path d="M197,639.1094 L197,649.1094 L207,649.1094 L197,639.1094 " fill="#FEFFDD" style="stroke:#181818;stroke-width:1.0;"/><text fill="#000000" font-family="sans-serif" font-size="13" lengthAdjust="spacing" textLength="108" x="12" y="657.6045">Repository Pattern</text><text fill="#000000" font-family="sans-serif" font-size="13" lengthAdjust="spacing" textLength="180" x="12" y="673.9561">Abstracci&#243;n de acceso a datos</text></g><g id="elem_GMN34"><path d="M2614.5,865.1094 L2614.5,907.8125 L2802.5,907.8125 L2802.5,875.1094 L2792.5,865.1094 L2614.5,865.1094 " fill="#FEFFDD" style="stroke:#181818;stroke-width:0.5;"/><path d="M2792.5,865.1094 L2792.5,875.1094 L2802.5,875.1094 L2792.5,865.1094 " fill="#FEFFDD" style="stroke:#181818;stroke-width:1.0;"/><text fill="#000000" font-family="sans-serif" font-size="13" lengthAdjust="spacing" textLength="95" x="2620.5" y="883.6045">Strategy Pattern</text><text fill="#000000" font-family="sans-serif" font-size="13" lengthAdjust="spacing" textLength="167" x="2620.5" y="899.9561">Autenticaci&#243;n intercambiable</text></g><g id="elem_GMN45"><path d="M2842,639.1094 L2842,681.8125 L3025,681.8125 L3025,649.1094 L3015,639.1094 L2842,639.1094 " fill="#FEFFDD" style="stroke:#181818;stroke-width:0.5;"/><path d="M3015,639.1094 L3015,649.1094 L3025,649.1094 L3015,639.1094 " fill="#FEFFDD" style="stroke:#181818;stroke-width:1.0;"/><text fill="#000000" font-family="sans-serif" font-size="13" lengthAdjust="spacing" textLength="124" x="2848" y="657.6045">Service Layer Pattern</text><text fill="#000000" font-family="sans-serif" font-size="13" lengthAdjust="spacing" textLength="162" x="2848" y="673.9561">L&#243;gica de negocio separada</text></g><g id="elem_GMN62"><path d="M2842,360.1094 L2842,402.8125 L3153,402.8125 L3153,370.1094 L3143,360.1094 L2842,360.1094 " fill="#FEFFDD" style="stroke:#181818;stroke-width:0.5;"/><path d="M3143,360.1094 L3143,370.1094 L3153,370.1094 L3143,360.1094 " fill="#FEFFDD" style="stroke:#181818;stroke-width:1.0;"/><text fill="#000000" font-family="sans-serif" font-size="13" lengthAdjust="spacing" textLength="102" x="2848" y="378.6045">Decorator Pattern</text><text fill="#000000" font-family="sans-serif" font-size="13" lengthAdjust="spacing" textLength="290" x="2848" y="394.9561">Enrutamiento modular con autenticaci&#243;n decorada</text></g><!--class App--><g id="elem_App"><rect codeLine="190" fill="#F1F1F1" height="65.6094" id="App" rx="2.5" ry="2.5" style="stroke:#181818;stroke-width:0.5;" width="57" x="2352" y="114.6094"/><ellipse cx="2367" cy="130.6094" fill="#ADD1B2" rx="11" ry="11" style="stroke:#181818;stroke-width:1.0;"/><path d="M2369.7656,126.4844 Q2369.9219,126.2656 2370.1094,126.1563 Q2370.2969,126.0469 2370.5156,126.0469 Q2370.8906,126.0469 2371.125,126.3125 Q2371.3594,126.5625 2371.3594,127.1719 L2371.3594,128.625 Q2371.3594,129.2344 2371.125,129.5 Q2370.8906,129.7656 2370.5156,129.7656 Q2370.1719,129.7656 2369.9688,129.5625 Q2369.7656,129.375 2369.6563,128.8594 Q2369.6094,128.5 2369.4219,128.3125 Q2369.0938,127.9375 2368.4844,127.7188 Q2367.875,127.5 2367.25,127.5 Q2366.4844,127.5 2365.8438,127.8281 Q2365.2188,128.1563 2364.7188,128.9063 Q2364.2344,129.6563 2364.2344,130.6875 L2364.2344,131.7813 Q2364.2344,133.0156 2365.125,133.8438 Q2366.0156,134.6563 2367.6094,134.6563 Q2368.5469,134.6563 2369.2031,134.4063 Q2369.5938,134.25 2370.0156,133.8125 Q2370.2813,133.5469 2370.4219,133.4688 Q2370.5781,133.3906 2370.7813,133.3906 Q2371.1094,133.3906 2371.3594,133.6563 Q2371.625,133.9063 2371.625,134.25 Q2371.625,134.5938 2371.2813,135 Q2370.7813,135.5781 2369.9844,135.9063 Q2368.9063,136.3594 2367.6094,136.3594 Q2366.0938,136.3594 2364.8906,135.7344 Q2363.9063,135.2344 2363.2188,134.1719 Q2362.5313,133.0938 2362.5313,131.8125 L2362.5313,130.6563 Q2362.5313,129.3281 2363.1406,128.1875 Q2363.7656,127.0313 2364.8594,126.4219 Q2365.9531,125.7969 2367.1875,125.7969 Q2367.9219,125.7969 2368.5625,125.9688 Q2369.2188,126.125 2369.7656,126.4844 Z " fill="#000000"/><text fill="#000000" font-family="sans-serif" font-size="14" lengthAdjust="spacing" textLength="25" x="2381" y="136.3379">App</text><line style="stroke:#181818;stroke-width:0.5;" x1="2353" x2="2408" y1="146.6094" y2="146.6094"/><line style="stroke:#181818;stroke-width:0.5;" x1="2353" x2="2408" y1="154.6094" y2="154.6094"/><ellipse cx="2363" cy="168.9141" fill="#84BE84" rx="3" ry="3" style="stroke:#038048;stroke-width:1.0;"/><text fill="#000000" font-family="sans-serif" font-size="14" lengthAdjust="spacing" textLength="31" x="2372" y="173.1426">run()</text></g><!--class DIContainer--><g id="elem_DIContainer"><rect codeLine="194" fill="#F1F1F1" height="188.875" id="DIContainer" rx="2.5" ry="2.5" style="stroke:#181818;stroke-width:0.5;" width="134" x="1318.5" y="287.1094"/><ellipse cx="1345.65" cy="303.1094" fill="#ADD1B2" rx="11" ry="11" style="stroke:#181818;stroke-width:1.0;"/><path d="M1348.4156,298.9844 Q1348.5719,298.7656 1348.7594,298.6563 Q1348.9469,298.5469 1349.1656,298.5469 Q1349.5406,298.5469 1349.775,298.8125 Q1350.0094,299.0625 1350.0094,299.6719 L1350.0094,301.125 Q1350.0094,301.7344 1349.775,302 Q1349.5406,302.2656 1349.1656,302.2656 Q1348.8219,302.2656 1348.6188,302.0625 Q1348.4156,301.875 1348.3063,301.3594 Q1348.2594,301 1348.0719,300.8125 Q1347.7438,300.4375 1347.1344,300.2188 Q1346.525,300 1345.9,300 Q1345.1344,300 1344.4938,300.3281 Q1343.8688,300.6563 1343.3688,301.4063 Q1342.8844,302.1563 1342.8844,303.1875 L1342.8844,304.2813 Q1342.8844,305.5156 1343.775,306.3438 Q1344.6656,307.1563 1346.2594,307.1563 Q1347.1969,307.1563 1347.8531,306.9063 Q1348.2438,306.75 1348.6656,306.3125 Q1348.9313,306.0469 1349.0719,305.9688 Q1349.2281,305.8906 1349.4313,305.8906 Q1349.7594,305.8906 1350.0094,306.1563 Q1350.275,306.4063 1350.275,306.75 Q1350.275,307.0938 1349.9313,307.5 Q1349.4313,308.0781 1348.6344,308.4063 Q1347.5563,308.8594 1346.2594,308.8594 Q1344.7438,308.8594 1343.5406,308.2344 Q1342.5563,307.7344 1341.8688,306.6719 Q1341.1813,305.5938 1341.1813,304.3125 L1341.1813,303.1563 Q1341.1813,301.8281 1341.7906,300.6875 Q1342.4156,299.5313 1343.5094,298.9219 Q1344.6031,298.2969 1345.8375,298.2969 Q1346.5719,298.2969 1347.2125,298.4688 Q1347.8688,298.625 1348.4156,298.9844 Z " fill="#000000"/><text fill="#000000" font-family="sans-serif" font-size="14" lengthAdjust="spacing" textLength="75" x="1362.35" y="308.8379">DIContainer</text><line style="stroke:#181818;stroke-width:0.5;" x1="1319.5" x2="1451.5" y1="319.1094" y2="319.1094"/><ellipse cx="1329.5" cy="333.4141" fill="none" rx="3" ry="3" style="stroke:#038048;stroke-width:1.0;"/><text fill="#000000" font-family="sans-serif" font-size="14" lengthAdjust="spacing" textLength="85" x="1338.5" y="337.6426">product_repo</text><ellipse cx="1329.5" cy="351.0234" fill="none" rx="3" ry="3" style="stroke:#038048;stroke-width:1.0;"/><text fill="#000000" font-family="sans-serif" font-size="14" lengthAdjust="spacing" textLength="92" x="1338.5" y="355.252">category_repo</text><ellipse cx="1329.5" cy="368.6328" fill="none" rx="3" ry="3" style="stroke:#038048;stroke-width:1.0;"/><text fill="#000000" font-family="sans-serif" font-size="14" lengthAdjust="spacing" textLength="84" x="1338.5" y="372.8613">favorite_repo</text><ellipse cx="1329.5" cy="386.2422" fill="none" rx="3" ry="3" style="stroke:#038048;stroke-width:1.0;"/><text fill="#000000" font-family="sans-serif" font-size="14" lengthAdjust="spacing" textLength="81" x="1338.5" y="390.4707">auth_context</text><ellipse cx="1329.5" cy="403.8516" fill="none" rx="3" ry="3" style="stroke:#038048;stroke-width:1.0;"/><text fill="#000000" font-family="sans-serif" font-size="14" lengthAdjust="spacing" textLength="101" x="1338.5" y="408.0801">product_service</text><ellipse cx="1329.5" cy="421.4609" fill="none" rx="3" ry="3" style="stroke:#038048;stroke-width:1.0;"/><text fill="#000000" font-family="sans-serif" font-size="14" lengthAdjust="spacing" textLength="108" x="1338.5" y="425.6895">category_service</text><ellipse cx="1329.5" cy="439.0703" fill="none" rx="3" ry="3" style="stroke:#038048;stroke-width:1.0;"/><text fill="#000000" font-family="sans-serif" font-size="14" lengthAdjust="spacing" textLength="100" x="1338.5" y="443.2988">favorite_service</text><line style="stroke:#181818;stroke-width:0.5;" x1="1319.5" x2="1451.5" y1="450.375" y2="450.375"/><ellipse cx="1329.5" cy="464.6797" fill="#84BE84" rx="3" ry="3" style="stroke:#038048;stroke-width:1.0;"/><text fill="#000000" font-family="sans-serif" font-size="14" lengthAdjust="spacing" textLength="35" x="1338.5" y="468.9082">wire()</text></g><g id="elem_GMN67"><path d="M1079.5,352.1094 L1079.5,411.1641 A0,0 0 0 0 1079.5,411.1641 L1283.5,411.1641 A0,0 0 0 0 1283.5,411.1641 L1283.5,385.6094 L1318.43,381.6094 L1283.5,377.6094 L1283.5,362.1094 L1273.5,352.1094 L1079.5,352.1094 A0,0 0 0 0 1079.5,352.1094 " fill="#FEFFDD" style="stroke:#181818;stroke-width:0.5;"/><path d="M1273.5,352.1094 L1273.5,362.1094 L1283.5,362.1094 L1273.5,352.1094 " fill="#FEFFDD" style="stroke:#181818;stroke-width:0.5;"/><text fill="#000000" font-family="sans-serif" font-size="13" lengthAdjust="spacing" textLength="183" x="1085.5" y="370.6045">Dependency Injection Container</text><text fill="#000000" font-family="sans-serif" font-size="13" lengthAdjust="spacing" textLength="147" x="1085.5" y="386.9561">Gesti&#243;n de dependencias</text><text fill="#000000" font-family="sans-serif" font-size="13" lengthAdjust="spacing" textLength="169" x="1085.5" y="403.3076">(Singleton + Factory Method)</text></g><!--link ProductBuilder to Product--><g id="link_ProductBuilder_Product"><path codeLine="45" d="M742.5,206.8494 C742.5,236.3794 742.5,266.6194 742.5,298.3394 " fill="none" id="ProductBuilder-to-Product" style="stroke:#181818;stroke-width:1.0;"/><polygon fill="#181818" points="742.5,304.3394,746.5,295.3394,742.5,299.3394,738.5,295.3394,742.5,304.3394" style="stroke:#181818;stroke-width:1.0;"/><text fill="#000000" font-family="sans-serif" font-size="13" lengthAdjust="spacing" textLength="34" x="743.5" y="251.1045">builds</text></g><!--link CategoryBuilder to Category--><g id="link_CategoryBuilder_Category"><path codeLine="46" d="M577.5,189.2894 C577.5,226.1894 577.5,275.0194 577.5,316.5394 " fill="none" id="CategoryBuilder-to-Category" style="stroke:#181818;stroke-width:1.0;"/><polygon fill="#181818" points="577.5,322.5394,581.5,313.5394,577.5,317.5394,573.5,313.5394,577.5,322.5394" style="stroke:#181818;stroke-width:1.0;"/><text fill="#000000" font-family="sans-serif" font-size="13" lengthAdjust="spacing" textLength="34" x="578.5" y="251.1045">builds</text></g><!--link FavoriteBuilder to Favorite--><g id="link_FavoriteBuilder_Favorite"><path codeLine="47" d="M410.5,198.3794 C410.5,234.7294 410.5,278.1194 410.5,316.3194 " fill="none" id="FavoriteBuilder-to-Favorite" style="stroke:#181818;stroke-width:1.0;"/><polygon fill="#181818" points="410.5,322.3194,414.5,313.3194,410.5,317.3194,406.5,313.3194,410.5,322.3194" style="stroke:#181818;stroke-width:1.0;"/><text fill="#000000" font-family="sans-serif" font-size="13" lengthAdjust="spacing" textLength="34" x="411.5" y="251.1045">builds</text></g><!--link GMN12 to Models--><g id="link_GMN12_Models"><path d="M275.62,147.6094 C281.345,147.6094 287.0675,147.6094 292.79,147.6094 C295.6513,147.6094 298.5125,147.6094 301.3741,147.6094 C301.7318,147.6094 302.0895,147.6094 302.4472,147.6094 " fill="none" id="GMN12-Models" style="stroke:#181818;stroke-width:1.0;stroke-dasharray:7.0,7.0;"/></g><!--link JsonProductRepository to IProductRepository--><g id="link_JsonProductRepository_IProductRepository"><path codeLine="96" d="M363.7,728.8194 C371.8,757.1694 376.265,772.7919 384.365,801.1419 " fill="none" id="JsonProductRepository-to-IProductRepository" style="stroke:#181818;stroke-width:1.0;stroke-dasharray:7.0,7.0;"/><polygon fill="none" points="389.31,818.4494,390.1342,799.4936,378.5959,802.7903,389.31,818.4494" style="stroke:#181818;stroke-width:1.0;"/></g><!--link JsonCategoryRepository to ICategoryRepository--><g id="link_JsonCategoryRepository_ICategoryRepository"><path codeLine="97" d="M781.88,719.8794 C783.8,752.9294 785.1467,776.1996 787.0667,809.2696 " fill="none" id="JsonCategoryRepository-to-ICategoryRepository" style="stroke:#181818;stroke-width:1.0;stroke-dasharray:7.0,7.0;"/><polygon fill="none" points="788.11,827.2394,793.0566,808.9219,781.0768,809.6174,788.11,827.2394" style="stroke:#181818;stroke-width:1.0;"/></g><!--link JsonFavoriteRepository to IFavoriteRepository--><g id="link_JsonFavoriteRepository_IFavoriteRepository"><path codeLine="98" d="M569.38,719.8794 C574.99,752.9294 578.9795,776.4229 584.5895,809.4929 " fill="none" id="JsonFavoriteRepository-to-IFavoriteRepository" style="stroke:#181818;stroke-width:1.0;stroke-dasharray:7.0,7.0;"/><polygon fill="none" points="587.6,827.2394,590.505,808.4894,578.674,810.4964,587.6,827.2394" style="stroke:#181818;stroke-width:1.0;"/></g><!--link GMN25 to Repositories--><g id="link_GMN25_Repositories"><path d="M120.63,638.8594 C144.15,604.9094 194.92,540.6494 257,515.6094 C288.63,502.8494 839.39,502.7794 871,515.6094 C885.6725,521.5619 895.425,532.9106 901.7691,546.7459 C901.9673,547.1783 902.1622,547.6131 902.3539,548.0502 " fill="none" id="GMN25-Repositories" style="stroke:#181818;stroke-width:1.0;stroke-dasharray:7.0,7.0;"/></g><!--link TokenAuthStrategy to IAuthStrategy--><g id="link_TokenAuthStrategy_IAuthStrategy"><path codeLine="115" d="M2257.08,919.8094 C2288.02,955.9394 2326.2114,1000.538 2357.1714,1036.688 " fill="none" id="TokenAuthStrategy-to-IAuthStrategy" style="stroke:#181818;stroke-width:1.0;stroke-dasharray:7.0,7.0;"/><polygon fill="none" points="2368.88,1050.3594,2361.7285,1032.7851,2352.6142,1040.5908,2368.88,1050.3594" style="stroke:#181818;stroke-width:1.0;"/></g><!--link AuthContext to IAuthStrategy--><g id="link_AuthContext_IAuthStrategy"><path codeLine="116" d="M2398.17,919.8094 C2397.8,955.9394 2397.2614,1008.2097 2396.8914,1044.3597 " fill="none" id="AuthContext-to-IAuthStrategy" style="stroke:#181818;stroke-width:1.0;"/><polygon fill="#181818" points="2396.83,1050.3594,2400.9219,1041.4008,2396.8812,1045.3596,2392.9223,1041.3189,2396.83,1050.3594" style="stroke:#181818;stroke-width:1.0;"/><text fill="#000000" font-family="sans-serif" font-size="13" lengthAdjust="spacing" textLength="28" x="2397.5" y="1017.1045">uses</text></g><!--link GMN34 to Strategies--><g id="link_GMN34_Strategies"><path d="M2614.16,886.6094 C2593.62,886.6094 2573.08,886.6094 2552.5413,886.6094 C2542.2719,886.6094 2532.0028,886.6094 2521.7342,886.6094 C2516.5999,886.6094 2511.4657,886.6094 2506.3317,886.6094 C2503.7647,886.6094 2501.1977,886.6094 2498.6307,886.6094 " fill="none" id="GMN34-Strategies" style="stroke:#181818;stroke-width:1.0;stroke-dasharray:7.0,7.0;"/></g><!--link ProductService to IProductRepository--><g id="link_ProductService_IProductRepository"><path codeLine="141" d="M1492.26,719.6994 C1475.73,735.5694 1455.95,750.8094 1434.5,759.6094 C1409.41,769.9094 1217.57,765.8694 1190.5,767.6094 C1107.18,772.9794 1086.86,780.9394 1003.5,785.6094 C975.71,787.1694 528.19,782.8894 502.5,793.6094 C488.59,799.4094 480.1481,804.4144 468.5281,814.4644 " fill="none" id="ProductService-to-IProductRepository" style="stroke:#181818;stroke-width:1.0;"/><polygon fill="#181818" points="463.99,818.3894,473.4138,815.5273,467.7718,815.1186,468.1805,809.4765,463.99,818.3894" style="stroke:#181818;stroke-width:1.0;"/><text fill="#000000" font-family="sans-serif" font-size="13" lengthAdjust="spacing" textLength="28" x="1191.5" y="782.1045">uses</text></g><!--link ProductService to ICategoryRepository--><g id="link_ProductService_ICategoryRepository"><path codeLine="142" d="M1489.15,719.6694 C1473.05,734.7594 1454.28,749.5694 1434.5,759.6094 C1248.63,853.9894 1005.3835,877.5292 878.7335,883.4492 " fill="none" id="ProductService-to-ICategoryRepository" style="stroke:#181818;stroke-width:1.0;"/><polygon fill="#181818" points="872.74,883.7294,881.917,887.3048,877.7345,883.4959,881.5434,879.3135,872.74,883.7294" style="stroke:#181818;stroke-width:1.0;"/><text fill="#000000" font-family="sans-serif" font-size="13" lengthAdjust="spacing" textLength="28" x="1403.5" y="782.1045">uses</text></g><!--link CategoryService to ICategoryRepository--><g id="link_CategoryService_ICategoryRepository"><path codeLine="144" d="M1888.89,719.8394 C1873.87,735.2094 1855.97,750.1394 1836.5,759.6094 C1666.32,842.3894 1093.4448,873.4499 878.6148,882.3899 " fill="none" id="CategoryService-to-ICategoryRepository" style="stroke:#181818;stroke-width:1.0;"/><polygon fill="#181818" points="872.62,882.6394,881.7785,886.2617,877.6157,882.4315,881.4459,878.2686,872.62,882.6394" style="stroke:#181818;stroke-width:1.0;"/><text fill="#000000" font-family="sans-serif" font-size="13" lengthAdjust="spacing" textLength="28" x="1808.5" y="782.1045">uses</text></g><!--link FavoriteService to IFavoriteRepository--><g id="link_FavoriteService_IFavoriteRepository"><path codeLine="146" d="M1716.96,711.3694 C1702.27,730.0294 1683.03,749.2094 1660.5,759.6094 C1644.76,766.8794 1365.78,766.1394 1348.5,767.6094 C1293.01,772.3294 1280.01,781.1794 1224.5,785.6094 C1195.09,787.9594 720.79,782.3994 693.5,793.6094 C675.35,801.0594 663.0063,809.5625 648.8163,823.1325 " fill="none" id="FavoriteService-to-IFavoriteRepository" style="stroke:#181818;stroke-width:1.0;"/><polygon fill="#181818" points="644.48,827.2794,653.749,823.95,648.0936,823.8237,648.2199,818.1682,644.48,827.2794" style="stroke:#181818;stroke-width:1.0;"/><text fill="#000000" font-family="sans-serif" font-size="13" lengthAdjust="spacing" textLength="28" x="1349.5" y="782.1045">uses</text></g><!--link GMN45 to Services--><g id="link_GMN45_Services"><path d="M2920.8,638.9794 C2899.34,604.8994 2852.3,540.0794 2792,515.6094 C2757.17,501.4794 1473.83,501.4794 1439,515.6094 C1424.3275,521.5619 1414.575,532.9106 1408.2309,546.7459 C1406.6449,550.2048 1405.2719,553.819 1404.0884,557.5432 " fill="none" id="GMN45-Services" style="stroke:#181818;stroke-width:1.0;stroke-dasharray:7.0,7.0;"/></g><!--link AuthDecorator to AuthContext--><g id="link_AuthDecorator_AuthContext"><path codeLine="178" d="M2386.51,693.6994 C2389.17,736.2894 2393.4657,805.0311 2396.1257,847.5911 " fill="none" id="AuthDecorator-to-AuthContext" style="stroke:#181818;stroke-width:1.0;"/><polygon fill="#181818" points="2396.5,853.5794,2399.9308,844.3474,2396.1881,848.5891,2391.9464,844.8464,2396.5,853.5794" style="stroke:#181818;stroke-width:1.0;"/><text fill="#000000" font-family="sans-serif" font-size="13" lengthAdjust="spacing" textLength="28" x="2392.5" y="782.1045">uses</text></g><!--link ProductsBlueprint to AuthDecorator--><g id="link_ProductsBlueprint_AuthDecorator"><path codeLine="179" d="M2228.47,432.1294 C2267.21,488.6194 2326.0565,574.4012 2358.9965,622.4312 " fill="none" id="ProductsBlueprint-to-AuthDecorator" style="stroke:#181818;stroke-width:1.0;"/><polygon fill="#181818" points="2362.39,627.3794,2360.5985,617.6948,2359.5621,623.2559,2354.001,622.2195,2362.39,627.3794" style="stroke:#181818;stroke-width:1.0;"/><text fill="#000000" font-family="sans-serif" font-size="13" lengthAdjust="spacing" textLength="57" x="2290.5" y="521.1045">decorated</text></g><!--link CategoriesBlueprint to AuthDecorator--><g id="link_CategoriesBlueprint_AuthDecorator"><path codeLine="180" d="M2378.81,440.6394 C2378.28,461.4494 2377.76,485.0794 2377.5,506.6094 C2377,548.3494 2379.3146,590.4545 2381.5146,621.4045 " fill="none" id="CategoriesBlueprint-to-AuthDecorator" style="stroke:#181818;stroke-width:1.0;"/><polygon fill="#181818" points="2381.94,627.3894,2385.2918,618.1284,2381.5855,622.402,2377.3119,618.6956,2381.94,627.3894" style="stroke:#181818;stroke-width:1.0;"/><text fill="#000000" font-family="sans-serif" font-size="13" lengthAdjust="spacing" textLength="57" x="2378.5" y="521.1045">decorated</text></g><!--link FavoritesBlueprint to AuthDecorator--><g id="link_FavoritesBlueprint_AuthDecorator"><path codeLine="181" d="M2529.47,432.2394 C2512.73,454.6294 2493.14,481.5994 2476.5,506.6094 C2449.37,547.3794 2423.6658,590.895 2405.6858,622.235 " fill="none" id="FavoritesBlueprint-to-AuthDecorator" style="stroke:#181818;stroke-width:1.0;"/><polygon fill="#181818" points="2402.7,627.4394,2410.6482,621.6234,2405.1881,623.1024,2403.7091,617.6423,2402.7,627.4394" style="stroke:#181818;stroke-width:1.0;"/><text fill="#000000" font-family="sans-serif" font-size="13" lengthAdjust="spacing" textLength="57" x="2477.5" y="521.1045">decorated</text></g><!--link ProductsBlueprint to ProductService--><g id="link_ProductsBlueprint_ProductService"><path codeLine="183" d="M2175.43,432.1394 C2163.15,456.7694 2144.55,484.2694 2118.5,498.6094 C2093.38,512.4294 1626.15,490.4094 1602.5,506.6094 C1571.41,527.9094 1557.2429,561.8516 1549.5129,595.5116 " fill="none" id="ProductsBlueprint-to-ProductService" style="stroke:#181818;stroke-width:1.0;"/><polygon fill="#181818" points="1548.17,601.3594,1554.0829,593.483,1549.2891,596.4862,1546.2859,591.6924,1548.17,601.3594" style="stroke:#181818;stroke-width:1.0;"/><text fill="#000000" font-family="sans-serif" font-size="13" lengthAdjust="spacing" textLength="38" x="1603.5" y="521.1045">injects</text></g><!--link CategoriesBlueprint to CategoryService--><g id="link_CategoriesBlueprint_CategoryService"><path codeLine="184" d="M2345.45,440.6094 C2329.52,462.1494 2308.76,484.6994 2284.5,498.6094 C2265.36,509.5894 2257.21,502.6494 2235.5,506.6094 C2177.96,517.0994 2159.96,508.8994 2106.5,532.6094 C2067.82,549.7694 2034.1476,573.0593 2003.5176,597.7993 " fill="none" id="CategoriesBlueprint-to-CategoryService" style="stroke:#181818;stroke-width:1.0;"/><polygon fill="#181818" points="1998.85,601.5694,2008.3648,599.026,2002.7397,598.4277,2003.3381,592.8025,1998.85,601.5694" style="stroke:#181818;stroke-width:1.0;"/><text fill="#000000" font-family="sans-serif" font-size="13" lengthAdjust="spacing" textLength="38" x="2236.5" y="521.1045">injects</text></g><!--link FavoritesBlueprint to FavoriteService--><g id="link_FavoritesBlueprint_FavoriteService"><path codeLine="185" d="M2542.57,432.1194 C2527.2,456.8994 2504.96,484.5594 2476.5,498.6094 C2459.51,506.9994 1809.64,495.2194 1794.5,506.6094 C1762.92,530.3794 1752.8068,569.1153 1749.5468,604.0953 " fill="none" id="FavoritesBlueprint-to-FavoriteService" style="stroke:#181818;stroke-width:1.0;"/><polygon fill="#181818" points="1748.99,610.0694,1753.8079,601.4794,1749.454,605.0909,1745.8424,600.737,1748.99,610.0694" style="stroke:#181818;stroke-width:1.0;"/><text fill="#000000" font-family="sans-serif" font-size="13" lengthAdjust="spacing" textLength="38" x="1795.5" y="521.1045">injects</text></g><!--link AuthBlueprint to IAuthStrategy--><g id="link_AuthBlueprint_IAuthStrategy"><path codeLine="186" d="M2723.59,414.9294 C2683.23,534.0694 2542.81,944.4294 2506.5,994.6094 C2490.8,1016.3094 2473.2615,1032.0091 2452.7715,1046.9191 " fill="none" id="AuthBlueprint-to-IAuthStrategy" style="stroke:#181818;stroke-width:1.0;"/><polygon fill="#181818" points="2447.92,1050.4494,2457.5508,1048.3883,2451.9629,1047.5075,2452.8437,1041.9196,2447.92,1050.4494" style="stroke:#181818;stroke-width:1.0;"/><text fill="#000000" font-family="sans-serif" font-size="13" lengthAdjust="spacing" textLength="28" x="2598.5" y="782.1045">uses</text></g><!--link GMN62 to Blueprints--><g id="link_GMN62_Blueprints"><path d="M2976.96,359.9594 C2942.57,325.4894 2869.48,259.4694 2792,234.6094 C2721.33,211.9294 2188.92,198.6294 2124,234.6094 C2109.97,242.3844 2100.5538,254.8006 2094.3491,269.2048 C2093.5735,271.0054 2092.8481,272.837 2092.1701,274.6944 C2091.8311,275.6232 2091.504,276.5584 2091.1884,277.4994 C2091.1095,277.7347 2091.0313,277.9703 2090.9539,278.2062 " fill="none" id="GMN62-Blueprints" style="stroke:#181818;stroke-width:1.0;stroke-dasharray:7.0,7.0;"/></g><!--link App to DIContainer--><g id="link_App_DIContainer"><path codeLine="206" d="M2351.79,155.2994 C2217.49,186.6194 1655.2732,317.7068 1458.6532,363.5568 " fill="none" id="App-to-DIContainer" style="stroke:#181818;stroke-width:1.0;"/><polygon fill="#181818" points="1452.81,364.9194,1462.4832,366.771,1457.6794,363.7839,1460.6665,358.98,1452.81,364.9194" style="stroke:#181818;stroke-width:1.0;"/><text fill="#000000" font-family="sans-serif" font-size="13" lengthAdjust="spacing" textLength="54" x="2001.5" y="251.1045">initializes</text></g><!--link DIContainer to IProductRepository--><g id="link_DIContainer_IProductRepository"><path codeLine="207" d="M1330.27,476.3194 C1321.68,485.0894 1312.09,492.8394 1301.5,498.6094 C1287.04,506.4894 1169.87,504.8394 1153.5,506.6094 C1081.87,514.3394 1047.83,485.2994 993.5,532.6094 C913.88,601.9394 1005.85,693.5394 923.5,759.6094 C850.29,818.3494 587.91,754.6894 502.5,793.6094 C489.1,799.7194 481.0149,804.6607 469.6449,814.5107 " fill="none" id="DIContainer-to-IProductRepository" style="stroke:#181818;stroke-width:1.0;"/><polygon fill="#181818" points="465.11,818.4394,474.5315,815.5696,468.8891,815.1655,469.2933,809.5231,465.11,818.4394" style="stroke:#181818;stroke-width:1.0;"/><text fill="#000000" font-family="sans-serif" font-size="13" lengthAdjust="spacing" textLength="43" x="994.5" y="666.1045">creates</text></g><!--link DIContainer to ICategoryRepository--><g id="link_DIContainer_ICategoryRepository"><path codeLine="208" d="M1323.93,476.3394 C1316.86,484.3294 1309.35,491.9094 1301.5,498.6094 C1276.11,520.2994 1254.71,506.0294 1234.5,532.6094 C1165.08,623.9194 1262.52,702.4594 1183.5,785.6094 C1141.28,830.0294 980.4177,859.4971 878.4977,874.2971 " fill="none" id="DIContainer-to-ICategoryRepository" style="stroke:#181818;stroke-width:1.0;"/><polygon fill="#181818" points="872.56,875.1594,882.0414,877.8245,877.5081,874.4409,880.8918,869.9076,872.56,875.1594" style="stroke:#181818;stroke-width:1.0;"/><text fill="#000000" font-family="sans-serif" font-size="13" lengthAdjust="spacing" textLength="43" x="1235.5" y="666.1045">creates</text></g><!--link DIContainer to IFavoriteRepository--><g id="link_DIContainer_IFavoriteRepository"><path codeLine="209" d="M1329.37,476.2194 C1320.99,484.8794 1311.69,492.6294 1301.5,498.6094 C1275.25,514.0094 1263.26,500.2594 1233.5,506.6094 C1195.7,514.6794 1180.21,507.8794 1150.5,532.6094 C1050.54,615.7894 1123.47,735.4294 1003.5,785.6094 C971.71,798.9094 725.3,780.3494 693.5,793.6094 C675.39,801.1594 663.0549,809.691 648.8749,823.261 " fill="none" id="DIContainer-to-IFavoriteRepository" style="stroke:#181818;stroke-width:1.0;"/><polygon fill="#181818" points="644.54,827.4094,653.8079,824.0767,648.1524,823.9524,648.2767,818.2969,644.54,827.4094" style="stroke:#181818;stroke-width:1.0;"/><text fill="#000000" font-family="sans-serif" font-size="13" lengthAdjust="spacing" textLength="43" x="1151.5" y="666.1045">creates</text></g><!--link DIContainer to AuthContext--><g id="link_DIContainer_AuthContext"><path codeLine="210" d="M1338.19,476.3794 C1302.71,561.5194 1271.18,684.8494 1341.5,759.6094 C1357.71,776.8394 1742.86,784.7194 1766.5,785.6094 C1781.99,786.1894 2310.57,786.8094 2324.5,793.6094 C2350.11,806.0994 2366.6581,826.9894 2379.2381,848.1894 " fill="none" id="DIContainer-to-AuthContext" style="stroke:#181818;stroke-width:1.0;"/><polygon fill="#181818" points="2382.3,853.3494,2381.1471,843.5682,2379.7484,849.0494,2374.2672,847.6507,2382.3,853.3494" style="stroke:#181818;stroke-width:1.0;"/><text fill="#000000" font-family="sans-serif" font-size="13" lengthAdjust="spacing" textLength="43" x="1342.5" y="666.1045">creates</text></g><!--link DIContainer to ProductService--><g id="link_DIContainer_ProductService"><path codeLine="211" d="M1437.98,476.3894 C1461.16,517.8294 1484.7709,560.0029 1505.0309,596.2229 " fill="none" id="DIContainer-to-ProductService" style="stroke:#181818;stroke-width:1.0;"/><polygon fill="#181818" points="1507.96,601.4594,1507.0574,591.652,1505.5191,597.0957,1500.0754,595.5574,1507.96,601.4594" style="stroke:#181818;stroke-width:1.0;"/><text fill="#000000" font-family="sans-serif" font-size="13" lengthAdjust="spacing" textLength="47" x="1463.5" y="521.1045">provides</text></g><!--link DIContainer to CategoryService--><g id="link_DIContainer_CategoryService"><path codeLine="212" d="M1452.8,385.4394 C1548.45,392.6094 1725.1,417.8794 1842.5,506.6094 C1874.27,530.6194 1894.795,563.6412 1909.875,595.9912 " fill="none" id="DIContainer-to-CategoryService" style="stroke:#181818;stroke-width:1.0;"/><polygon fill="#181818" points="1912.41,601.4294,1912.2329,591.5821,1910.2975,596.8976,1904.982,594.9621,1912.41,601.4294" style="stroke:#181818;stroke-width:1.0;"/><text fill="#000000" font-family="sans-serif" font-size="13" lengthAdjust="spacing" textLength="47" x="1860.5" y="521.1045">provides</text></g><!--link DIContainer to FavoriteService--><g id="link_DIContainer_FavoriteService"><path codeLine="213" d="M1452.7,402.2794 C1510.16,421.6694 1592.52,455.8194 1650.5,506.6094 C1683.13,535.1894 1706.2247,571.8794 1723.1647,604.6494 " fill="none" id="DIContainer-to-FavoriteService" style="stroke:#181818;stroke-width:1.0;"/><polygon fill="#181818" points="1725.92,609.9794,1725.3404,600.1476,1723.624,605.5377,1718.2338,603.8213,1725.92,609.9794" style="stroke:#181818;stroke-width:1.0;"/><text fill="#000000" font-family="sans-serif" font-size="13" lengthAdjust="spacing" textLength="47" x="1668.5" y="521.1045">provides</text></g><!--link App to ProductsBlueprint--><g id="link_App_ProductsBlueprint"><path codeLine="215" d="M2352.77,180.6994 C2333.36,203.3494 2307,234.5494 2284.5,262.6094 C2266.77,284.7194 2251.2788,304.8335 2235.2488,326.0335 " fill="none" id="App-to-ProductsBlueprint" style="stroke:#181818;stroke-width:1.0;"/><polygon fill="#181818" points="2231.63,330.8194,2240.2487,326.0531,2234.6456,326.8311,2233.8675,321.2281,2231.63,330.8194" style="stroke:#181818;stroke-width:1.0;"/><text fill="#000000" font-family="sans-serif" font-size="13" lengthAdjust="spacing" textLength="50" x="2305.5" y="251.1045">registers</text></g><!--link App to CategoriesBlueprint--><g id="link_App_CategoriesBlueprint"><path codeLine="216" d="M2380.5,180.8694 C2380.5,217.3494 2380.5,271.4894 2380.5,316.2594 " fill="none" id="App-to-CategoriesBlueprint" style="stroke:#181818;stroke-width:1.0;"/><polygon fill="#181818" points="2380.5,322.2594,2384.5,313.2594,2380.5,317.2594,2376.5,313.2594,2380.5,322.2594" style="stroke:#181818;stroke-width:1.0;"/><text fill="#000000" font-family="sans-serif" font-size="13" lengthAdjust="spacing" textLength="50" x="2381.5" y="251.1045">registers</text></g><!--link App to FavoritesBlueprint--><g id="link_App_FavoritesBlueprint"><path codeLine="217" d="M2408.18,180.7294 C2427.57,203.4094 2453.93,234.6094 2476.5,262.6094 C2494.36,284.7694 2510.0241,304.9041 2526.2441,326.1041 " fill="none" id="App-to-FavoritesBlueprint" style="stroke:#181818;stroke-width:1.0;"/><polygon fill="#181818" points="2529.89,330.8694,2527.598,321.2909,2526.8518,326.8983,2521.2444,326.1521,2529.89,330.8694" style="stroke:#181818;stroke-width:1.0;"/><text fill="#000000" font-family="sans-serif" font-size="13" lengthAdjust="spacing" textLength="50" x="2469.5" y="251.1045">registers</text></g><!--link App to AuthBlueprint--><g id="link_App_AuthBlueprint"><path codeLine="218" d="M2409.08,154.3194 C2463.01,166.2894 2581.3,198.3894 2658.5,262.6094 C2686.51,285.9094 2705.0854,316.8487 2717.8854,343.0387 " fill="none" id="App-to-AuthBlueprint" style="stroke:#181818;stroke-width:1.0;"/><polygon fill="#181818" points="2720.52,348.4294,2720.1619,338.587,2718.3245,343.9372,2712.9744,342.0998,2720.52,348.4294" style="stroke:#181818;stroke-width:1.0;"/><text fill="#000000" font-family="sans-serif" font-size="13" lengthAdjust="spacing" textLength="50" x="2646.5" y="251.1045">registers</text></g><!--SRC=[pLVDRjGm4BxlK_ZOge87o06fj82Ag5GLZfLMNcTswpPhBxQpi42VYaVWnHWdjcCdJhfRgeezPSVpbs_cct4CDnMGQrXIPgI2afmgTiiDC5Ch84VdeFbAa2jg32YXZsUp3MNtT0NaKfPGQV9pHl37AgerkLAoh9bnClixuMNtBEWQkd-C6bX9jUia6yLPf63alEJC71rtegMIwrZuC8kYdpc7-uK_rFjxkfKASOczrnhKF0wnQG58P8S6SY2-hNbLWeh3QJ1p-nAnAolpIFRb3PwnS65zJa6tPz1HFnwa4JyEhs6U7hL7WlIWUVNgJMYvWZJwkj7hluvL3DsHQFOJjfgXqa7pOIOa_gzWQOXS-iulYBToxBWHPr9ee-g6IPeigvgNKfCDLPJ8nHqOgJl-NCD6QewQ73oBk40tI4GW5-wzWbBIrIi4ZLPLZ9OLBNOz29qmrn-qJCj0jn2vT7X7-NZu_YsXGwFwKkmTTJf08rEmbbl8TUz7BSL_WNkNpWl2tWLzATJpUBz-_UjDfl-3HGQIrcHu46moRzJQ30_wP4zeMf38Gs3zwG99JndZVtuBKWB1Hz2IK5BIXF6VKGjJpFBzj3QtxZn1cw8SXE6sbtBr-YBlGJpLsDhXo3BmtUndDepMmXYB6iNOivsfwViL13V1OAn6y1Gaw7OerwPDgiMvmOxHzOBJHGKHoA2skFQo5nDtbkbcluDqdqj-DsKvxet6oCuKeDIhJItUYSoSOuIb7zw772Rd0kTomjK5mwFi5fz8QkbKT6yCX8CXz_j7wKxtiPfc6Gu5rp5Z1fcPu2oI-y0XDdqG6flC71dfPT-5XNyad-WklYfy-lDxXSrivuN0F1YNH8EzAPIqQ-QtLGruYnCcRMTBfdDW4YaYaqkMiVoSA_XQSxpAJzmkTV3Sh-uZH7XIUsFlZiPxlBsVlx77itc-lkugbGrMoHKNgKLQLTjlyHGTCY1w2w_ScHVOMCqpb345aaeyRfK1RDfe8hyURmkSu7VubQadq-ipDxKQIQzFtTGeBSc-oobYOa6wTmzqVYTKRUYQuugIP8rlMb55c1I4fckhXSfot3N8PkFQuaJLjY4U_CdvXIqzvI9yHuNFIuNZPvPyH4SYtuwHo2xqEMiRAVMaMuXwpX9fy9T8l-60QR9DK8fpjZ1jG9GWs8vSD0NWY4TGk14VG1j_PogzBgVwHXnzvcA5T4Rz4omdQoRj9PXRMHxFPXOpMxSq6XVSS5hn7rYy-6HqexIp9AEStGoZsjcTCAQTCdfCQq0LBDUMbndD8Jz6LOUi2Ae1qI5p2wBmIgQnoNNGof4rfvUXPquj9MIiyHS0]--></g></svg>