<?xml version="1.0" encoding="us-ascii" standalone="no"?><svg xmlns="http://www.w3.org/2000/svg" xmlns:xlink="http://www.w3.org/1999/xlink" contentStyleType="text/css" height="563px" preserveAspectRatio="none" style="width:936px;height:563px;background:#FFFFFF;" version="1.1" viewBox="0 0 936 563" width="936px" zoomAndPan="magnify"><defs/><g><text fill="#000000" font-family="sans-serif" font-size="14" font-weight="bold" lengthAdjust="spacing" textLength="146" x="388" y="24.5332">Arquitectura Original</text><!--class App--><g id="elem_App"><rect codeLine="3" fill="#F1F1F1" height="65.6094" id="App" rx="2.5" ry="2.5" style="stroke:#181818;stroke-width:0.5;" width="57" x="534" y="45.6094"/><ellipse cx="549" cy="61.6094" fill="#ADD1B2" rx="11" ry="11" style="stroke:#181818;stroke-width:1.0;"/><path d="M551.7656,57.4844 Q551.9219,57.2656 552.1094,57.1563 Q552.2969,57.0469 552.5156,57.0469 Q552.8906,57.0469 553.125,57.3125 Q553.3594,57.5625 553.3594,58.1719 L553.3594,59.625 Q553.3594,60.2344 553.125,60.5 Q552.8906,60.7656 552.5156,60.7656 Q552.1719,60.7656 551.9688,60.5625 Q551.7656,60.375 551.6563,59.8594 Q551.6094,59.5 551.4219,59.3125 Q551.0938,58.9375 550.4844,58.7188 Q549.875,58.5 549.25,58.5 Q548.4844,58.5 547.8438,58.8281 Q547.2188,59.1563 546.7188,59.9063 Q546.2344,60.6563 546.2344,61.6875 L546.2344,62.7813 Q546.2344,64.0156 547.125,64.8438 Q548.0156,65.6563 549.6094,65.6563 Q550.5469,65.6563 551.2031,65.4063 Q551.5938,65.25 552.0156,64.8125 Q552.2813,64.5469 552.4219,64.4688 Q552.5781,64.3906 552.7813,64.3906 Q553.1094,64.3906 553.3594,64.6563 Q553.625,64.9063 553.625,65.25 Q553.625,65.5938 553.2813,66 Q552.7813,66.5781 551.9844,66.9063 Q550.9063,67.3594 549.6094,67.3594 Q548.0938,67.3594 546.8906,66.7344 Q545.9063,66.2344 545.2188,65.1719 Q544.5313,64.0938 544.5313,62.8125 L544.5313,61.6563 Q544.5313,60.3281 545.1406,59.1875 Q545.7656,58.0313 546.8594,57.4219 Q547.9531,56.7969 549.1875,56.7969 Q549.9219,56.7969 550.5625,56.9688 Q551.2188,57.125 551.7656,57.4844 Z " fill="#000000"/><text fill="#000000" font-family="sans-serif" font-size="14" lengthAdjust="spacing" textLength="25" x="563" y="67.3379">App</text><line style="stroke:#181818;stroke-width:0.5;" x1="535" x2="590" y1="77.6094" y2="77.6094"/><line style="stroke:#181818;stroke-width:0.5;" x1="535" x2="590" y1="85.6094" y2="85.6094"/><ellipse cx="545" cy="99.9141" fill="#84BE84" rx="3" ry="3" style="stroke:#038048;stroke-width:1.0;"/><text fill="#000000" font-family="sans-serif" font-size="14" lengthAdjust="spacing" textLength="31" x="554" y="104.1426">run()</text></g><!--class DatabaseConnection--><g id="elem_DatabaseConnection"><rect codeLine="7" fill="#F1F1F1" height="171.2656" id="DatabaseConnection" rx="2.5" ry="2.5" style="stroke:#181818;stroke-width:0.5;" width="165" x="360" y="385.6094"/><ellipse cx="375" cy="401.6094" fill="#ADD1B2" rx="11" ry="11" style="stroke:#181818;stroke-width:1.0;"/><path d="M377.7656,397.4844 Q377.9219,397.2656 378.1094,397.1563 Q378.2969,397.0469 378.5156,397.0469 Q378.8906,397.0469 379.125,397.3125 Q379.3594,397.5625 379.3594,398.1719 L379.3594,399.625 Q379.3594,400.2344 379.125,400.5 Q378.8906,400.7656 378.5156,400.7656 Q378.1719,400.7656 377.9688,400.5625 Q377.7656,400.375 377.6563,399.8594 Q377.6094,399.5 377.4219,399.3125 Q377.0938,398.9375 376.4844,398.7188 Q375.875,398.5 375.25,398.5 Q374.4844,398.5 373.8438,398.8281 Q373.2188,399.1563 372.7188,399.9063 Q372.2344,400.6563 372.2344,401.6875 L372.2344,402.7813 Q372.2344,404.0156 373.125,404.8438 Q374.0156,405.6563 375.6094,405.6563 Q376.5469,405.6563 377.2031,405.4063 Q377.5938,405.25 378.0156,404.8125 Q378.2813,404.5469 378.4219,404.4688 Q378.5781,404.3906 378.7813,404.3906 Q379.1094,404.3906 379.3594,404.6563 Q379.625,404.9063 379.625,405.25 Q379.625,405.5938 379.2813,406 Q378.7813,406.5781 377.9844,406.9063 Q376.9063,407.3594 375.6094,407.3594 Q374.0938,407.3594 372.8906,406.7344 Q371.9063,406.2344 371.2188,405.1719 Q370.5313,404.0938 370.5313,402.8125 L370.5313,401.6563 Q370.5313,400.3281 371.1406,399.1875 Q371.7656,398.0313 372.8594,397.4219 Q373.9531,396.7969 375.1875,396.7969 Q375.9219,396.7969 376.5625,396.9688 Q377.2188,397.125 377.7656,397.4844 Z " fill="#000000"/><text fill="#000000" font-family="sans-serif" font-size="14" lengthAdjust="spacing" textLength="133" x="389" y="407.3379">DatabaseConnection</text><line style="stroke:#181818;stroke-width:0.5;" x1="361" x2="524" y1="417.6094" y2="417.6094"/><line style="stroke:#181818;stroke-width:0.5;" x1="361" x2="524" y1="425.6094" y2="425.6094"/><ellipse cx="371" cy="439.9141" fill="#84BE84" rx="3" ry="3" style="stroke:#038048;stroke-width:1.0;"/><text fill="#000000" font-family="sans-serif" font-size="14" lengthAdjust="spacing" textLength="60" x="380" y="444.1426">connect()</text><ellipse cx="371" cy="457.5234" fill="#84BE84" rx="3" ry="3" style="stroke:#038048;stroke-width:1.0;"/><text fill="#000000" font-family="sans-serif" font-size="14" lengthAdjust="spacing" textLength="93" x="380" y="461.752">get_products()</text><ellipse cx="371" cy="475.1328" fill="#84BE84" rx="3" ry="3" style="stroke:#038048;stroke-width:1.0;"/><text fill="#000000" font-family="sans-serif" font-size="14" lengthAdjust="spacing" textLength="103" x="380" y="479.3613">save_products()</text><ellipse cx="371" cy="492.7422" fill="#84BE84" rx="3" ry="3" style="stroke:#038048;stroke-width:1.0;"/><text fill="#000000" font-family="sans-serif" font-size="14" lengthAdjust="spacing" textLength="104" x="380" y="496.9707">get_categories()</text><ellipse cx="371" cy="510.3516" fill="#84BE84" rx="3" ry="3" style="stroke:#038048;stroke-width:1.0;"/><text fill="#000000" font-family="sans-serif" font-size="14" lengthAdjust="spacing" textLength="114" x="380" y="514.5801">save_categories()</text><ellipse cx="371" cy="527.9609" fill="#84BE84" rx="3" ry="3" style="stroke:#038048;stroke-width:1.0;"/><text fill="#000000" font-family="sans-serif" font-size="14" lengthAdjust="spacing" textLength="92" x="380" y="532.1895">get_favorites()</text><ellipse cx="371" cy="545.5703" fill="#84BE84" rx="3" ry="3" style="stroke:#038048;stroke-width:1.0;"/><text fill="#000000" font-family="sans-serif" font-size="14" lengthAdjust="spacing" textLength="102" x="380" y="549.7988">save_favorites()</text></g><!--class ProductsResource--><g id="elem_ProductsResource"><rect codeLine="17" fill="#F1F1F1" height="100.8281" id="ProductsResource" rx="2.5" ry="2.5" style="stroke:#181818;stroke-width:0.5;" width="149" x="7" y="198.1094"/><ellipse cx="22" cy="214.1094" fill="#ADD1B2" rx="11" ry="11" style="stroke:#181818;stroke-width:1.0;"/><path d="M24.7656,209.9844 Q24.9219,209.7656 25.1094,209.6563 Q25.2969,209.5469 25.5156,209.5469 Q25.8906,209.5469 26.125,209.8125 Q26.3594,210.0625 26.3594,210.6719 L26.3594,212.125 Q26.3594,212.7344 26.125,213 Q25.8906,213.2656 25.5156,213.2656 Q25.1719,213.2656 24.9688,213.0625 Q24.7656,212.875 24.6563,212.3594 Q24.6094,212 24.4219,211.8125 Q24.0938,211.4375 23.4844,211.2188 Q22.875,211 22.25,211 Q21.4844,211 20.8438,211.3281 Q20.2188,211.6563 19.7188,212.4063 Q19.2344,213.1563 19.2344,214.1875 L19.2344,215.2813 Q19.2344,216.5156 20.125,217.3438 Q21.0156,218.1563 22.6094,218.1563 Q23.5469,218.1563 24.2031,217.9063 Q24.5938,217.75 25.0156,217.3125 Q25.2813,217.0469 25.4219,216.9688 Q25.5781,216.8906 25.7813,216.8906 Q26.1094,216.8906 26.3594,217.1563 Q26.625,217.4063 26.625,217.75 Q26.625,218.0938 26.2813,218.5 Q25.7813,219.0781 24.9844,219.4063 Q23.9063,219.8594 22.6094,219.8594 Q21.0938,219.8594 19.8906,219.2344 Q18.9063,218.7344 18.2188,217.6719 Q17.5313,216.5938 17.5313,215.3125 L17.5313,214.1563 Q17.5313,212.8281 18.1406,211.6875 Q18.7656,210.5313 19.8594,209.9219 Q20.9531,209.2969 22.1875,209.2969 Q22.9219,209.2969 23.5625,209.4688 Q24.2188,209.625 24.7656,209.9844 Z " fill="#000000"/><text fill="#000000" font-family="sans-serif" font-size="14" lengthAdjust="spacing" textLength="117" x="36" y="219.8379">ProductsResource</text><line style="stroke:#181818;stroke-width:0.5;" x1="8" x2="155" y1="230.1094" y2="230.1094"/><line style="stroke:#181818;stroke-width:0.5;" x1="8" x2="155" y1="238.1094" y2="238.1094"/><ellipse cx="18" cy="252.4141" fill="#84BE84" rx="3" ry="3" style="stroke:#038048;stroke-width:1.0;"/><text fill="#000000" font-family="sans-serif" font-size="14" lengthAdjust="spacing" textLength="30" x="27" y="256.6426">get()</text><ellipse cx="18" cy="270.0234" fill="#84BE84" rx="3" ry="3" style="stroke:#038048;stroke-width:1.0;"/><text fill="#000000" font-family="sans-serif" font-size="14" lengthAdjust="spacing" textLength="37" x="27" y="274.252">post()</text><rect fill="#F24D5C" height="6" style="stroke:#C82930;stroke-width:1.0;" width="6" x="15" y="284.6328"/><text fill="#000000" font-family="sans-serif" font-size="14" lengthAdjust="spacing" textLength="100" x="27" y="291.8613">is_valid_token()</text></g><!--class CategoriesResource--><g id="elem_CategoriesResource"><rect codeLine="23" fill="#F1F1F1" height="118.4375" id="CategoriesResource" rx="2.5" ry="2.5" style="stroke:#181818;stroke-width:0.5;" width="162" x="361.5" y="189.6094"/><ellipse cx="376.5" cy="205.6094" fill="#ADD1B2" rx="11" ry="11" style="stroke:#181818;stroke-width:1.0;"/><path d="M379.2656,201.4844 Q379.4219,201.2656 379.6094,201.1563 Q379.7969,201.0469 380.0156,201.0469 Q380.3906,201.0469 380.625,201.3125 Q380.8594,201.5625 380.8594,202.1719 L380.8594,203.625 Q380.8594,204.2344 380.625,204.5 Q380.3906,204.7656 380.0156,204.7656 Q379.6719,204.7656 379.4688,204.5625 Q379.2656,204.375 379.1563,203.8594 Q379.1094,203.5 378.9219,203.3125 Q378.5938,202.9375 377.9844,202.7188 Q377.375,202.5 376.75,202.5 Q375.9844,202.5 375.3438,202.8281 Q374.7188,203.1563 374.2188,203.9063 Q373.7344,204.6563 373.7344,205.6875 L373.7344,206.7813 Q373.7344,208.0156 374.625,208.8438 Q375.5156,209.6563 377.1094,209.6563 Q378.0469,209.6563 378.7031,209.4063 Q379.0938,209.25 379.5156,208.8125 Q379.7813,208.5469 379.9219,208.4688 Q380.0781,208.3906 380.2813,208.3906 Q380.6094,208.3906 380.8594,208.6563 Q381.125,208.9063 381.125,209.25 Q381.125,209.5938 380.7813,210 Q380.2813,210.5781 379.4844,210.9063 Q378.4063,211.3594 377.1094,211.3594 Q375.5938,211.3594 374.3906,210.7344 Q373.4063,210.2344 372.7188,209.1719 Q372.0313,208.0938 372.0313,206.8125 L372.0313,205.6563 Q372.0313,204.3281 372.6406,203.1875 Q373.2656,202.0313 374.3594,201.4219 Q375.4531,200.7969 376.6875,200.7969 Q377.4219,200.7969 378.0625,200.9688 Q378.7188,201.125 379.2656,201.4844 Z " fill="#000000"/><text fill="#000000" font-family="sans-serif" font-size="14" lengthAdjust="spacing" textLength="130" x="390.5" y="211.3379">CategoriesResource</text><line style="stroke:#181818;stroke-width:0.5;" x1="362.5" x2="522.5" y1="221.6094" y2="221.6094"/><line style="stroke:#181818;stroke-width:0.5;" x1="362.5" x2="522.5" y1="229.6094" y2="229.6094"/><ellipse cx="372.5" cy="243.9141" fill="#84BE84" rx="3" ry="3" style="stroke:#038048;stroke-width:1.0;"/><text fill="#000000" font-family="sans-serif" font-size="14" lengthAdjust="spacing" textLength="30" x="381.5" y="248.1426">get()</text><ellipse cx="372.5" cy="261.5234" fill="#84BE84" rx="3" ry="3" style="stroke:#038048;stroke-width:1.0;"/><text fill="#000000" font-family="sans-serif" font-size="14" lengthAdjust="spacing" textLength="37" x="381.5" y="265.752">post()</text><ellipse cx="372.5" cy="279.1328" fill="#84BE84" rx="3" ry="3" style="stroke:#038048;stroke-width:1.0;"/><text fill="#000000" font-family="sans-serif" font-size="14" lengthAdjust="spacing" textLength="49" x="381.5" y="283.3613">delete()</text><rect fill="#F24D5C" height="6" style="stroke:#C82930;stroke-width:1.0;" width="6" x="369.5" y="293.7422"/><text fill="#000000" font-family="sans-serif" font-size="14" lengthAdjust="spacing" textLength="100" x="381.5" y="300.9707">is_valid_token()</text></g><!--class FavoritesResource--><g id="elem_FavoritesResource"><rect codeLine="30" fill="#F1F1F1" height="118.4375" id="FavoritesResource" rx="2.5" ry="2.5" style="stroke:#181818;stroke-width:0.5;" width="152" x="558.5" y="189.6094"/><ellipse cx="573.5" cy="205.6094" fill="#ADD1B2" rx="11" ry="11" style="stroke:#181818;stroke-width:1.0;"/><path d="M576.2656,201.4844 Q576.4219,201.2656 576.6094,201.1563 Q576.7969,201.0469 577.0156,201.0469 Q577.3906,201.0469 577.625,201.3125 Q577.8594,201.5625 577.8594,202.1719 L577.8594,203.625 Q577.8594,204.2344 577.625,204.5 Q577.3906,204.7656 577.0156,204.7656 Q576.6719,204.7656 576.4688,204.5625 Q576.2656,204.375 576.1563,203.8594 Q576.1094,203.5 575.9219,203.3125 Q575.5938,202.9375 574.9844,202.7188 Q574.375,202.5 573.75,202.5 Q572.9844,202.5 572.3438,202.8281 Q571.7188,203.1563 571.2188,203.9063 Q570.7344,204.6563 570.7344,205.6875 L570.7344,206.7813 Q570.7344,208.0156 571.625,208.8438 Q572.5156,209.6563 574.1094,209.6563 Q575.0469,209.6563 575.7031,209.4063 Q576.0938,209.25 576.5156,208.8125 Q576.7813,208.5469 576.9219,208.4688 Q577.0781,208.3906 577.2813,208.3906 Q577.6094,208.3906 577.8594,208.6563 Q578.125,208.9063 578.125,209.25 Q578.125,209.5938 577.7813,210 Q577.2813,210.5781 576.4844,210.9063 Q575.4063,211.3594 574.1094,211.3594 Q572.5938,211.3594 571.3906,210.7344 Q570.4063,210.2344 569.7188,209.1719 Q569.0313,208.0938 569.0313,206.8125 L569.0313,205.6563 Q569.0313,204.3281 569.6406,203.1875 Q570.2656,202.0313 571.3594,201.4219 Q572.4531,200.7969 573.6875,200.7969 Q574.4219,200.7969 575.0625,200.9688 Q575.7188,201.125 576.2656,201.4844 Z " fill="#000000"/><text fill="#000000" font-family="sans-serif" font-size="14" lengthAdjust="spacing" textLength="120" x="587.5" y="211.3379">FavoritesResource</text><line style="stroke:#181818;stroke-width:0.5;" x1="559.5" x2="709.5" y1="221.6094" y2="221.6094"/><line style="stroke:#181818;stroke-width:0.5;" x1="559.5" x2="709.5" y1="229.6094" y2="229.6094"/><ellipse cx="569.5" cy="243.9141" fill="#84BE84" rx="3" ry="3" style="stroke:#038048;stroke-width:1.0;"/><text fill="#000000" font-family="sans-serif" font-size="14" lengthAdjust="spacing" textLength="30" x="578.5" y="248.1426">get()</text><ellipse cx="569.5" cy="261.5234" fill="#84BE84" rx="3" ry="3" style="stroke:#038048;stroke-width:1.0;"/><text fill="#000000" font-family="sans-serif" font-size="14" lengthAdjust="spacing" textLength="37" x="578.5" y="265.752">post()</text><ellipse cx="569.5" cy="279.1328" fill="#84BE84" rx="3" ry="3" style="stroke:#038048;stroke-width:1.0;"/><text fill="#000000" font-family="sans-serif" font-size="14" lengthAdjust="spacing" textLength="49" x="578.5" y="283.3613">delete()</text><rect fill="#F24D5C" height="6" style="stroke:#C82930;stroke-width:1.0;" width="6" x="566.5" y="293.7422"/><text fill="#000000" font-family="sans-serif" font-size="14" lengthAdjust="spacing" textLength="100" x="578.5" y="300.9707">is_valid_token()</text></g><!--class AuthenticationResource--><g id="elem_AuthenticationResource"><rect codeLine="37" fill="#F1F1F1" height="65.6094" id="AuthenticationResource" rx="2.5" ry="2.5" style="stroke:#181818;stroke-width:0.5;" width="183" x="746" y="215.6094"/><ellipse cx="761" cy="231.6094" fill="#ADD1B2" rx="11" ry="11" style="stroke:#181818;stroke-width:1.0;"/><path d="M763.7656,227.4844 Q763.9219,227.2656 764.1094,227.1563 Q764.2969,227.0469 764.5156,227.0469 Q764.8906,227.0469 765.125,227.3125 Q765.3594,227.5625 765.3594,228.1719 L765.3594,229.625 Q765.3594,230.2344 765.125,230.5 Q764.8906,230.7656 764.5156,230.7656 Q764.1719,230.7656 763.9688,230.5625 Q763.7656,230.375 763.6563,229.8594 Q763.6094,229.5 763.4219,229.3125 Q763.0938,228.9375 762.4844,228.7188 Q761.875,228.5 761.25,228.5 Q760.4844,228.5 759.8438,228.8281 Q759.2188,229.1563 758.7188,229.9063 Q758.2344,230.6563 758.2344,231.6875 L758.2344,232.7813 Q758.2344,234.0156 759.125,234.8438 Q760.0156,235.6563 761.6094,235.6563 Q762.5469,235.6563 763.2031,235.4063 Q763.5938,235.25 764.0156,234.8125 Q764.2813,234.5469 764.4219,234.4688 Q764.5781,234.3906 764.7813,234.3906 Q765.1094,234.3906 765.3594,234.6563 Q765.625,234.9063 765.625,235.25 Q765.625,235.5938 765.2813,236 Q764.7813,236.5781 763.9844,236.9063 Q762.9063,237.3594 761.6094,237.3594 Q760.0938,237.3594 758.8906,236.7344 Q757.9063,236.2344 757.2188,235.1719 Q756.5313,234.0938 756.5313,232.8125 L756.5313,231.6563 Q756.5313,230.3281 757.1406,229.1875 Q757.7656,228.0313 758.8594,227.4219 Q759.9531,226.7969 761.1875,226.7969 Q761.9219,226.7969 762.5625,226.9688 Q763.2188,227.125 763.7656,227.4844 Z " fill="#000000"/><text fill="#000000" font-family="sans-serif" font-size="14" lengthAdjust="spacing" textLength="151" x="775" y="237.3379">AuthenticationResource</text><line style="stroke:#181818;stroke-width:0.5;" x1="747" x2="928" y1="247.6094" y2="247.6094"/><line style="stroke:#181818;stroke-width:0.5;" x1="747" x2="928" y1="255.6094" y2="255.6094"/><ellipse cx="757" cy="269.9141" fill="#84BE84" rx="3" ry="3" style="stroke:#038048;stroke-width:1.0;"/><text fill="#000000" font-family="sans-serif" font-size="14" lengthAdjust="spacing" textLength="37" x="766" y="274.1426">post()</text></g><g id="elem_GMN15"><path d="M191,219.1094 L191,244.6094 L156.17,248.6094 L191,252.6094 L191,278.1641 A0,0 0 0 0 191,278.1641 L326,278.1641 A0,0 0 0 0 326,278.1641 L326,229.1094 L316,219.1094 L191,219.1094 A0,0 0 0 0 191,219.1094 " fill="#FEFFDD" style="stroke:#181818;stroke-width:0.5;"/><path d="M316,219.1094 L316,229.1094 L326,229.1094 L316,219.1094 " fill="#FEFFDD" style="stroke:#181818;stroke-width:0.5;"/><text fill="#000000" font-family="sans-serif" font-size="13" lengthAdjust="spacing" textLength="84" x="197" y="237.6045">Violaci&#243;n SRP</text><text fill="#000000" font-family="sans-serif" font-size="13" lengthAdjust="spacing" textLength="114" x="197" y="253.9561">Duplicaci&#243;n de auth</text><text fill="#000000" font-family="sans-serif" font-size="13" lengthAdjust="spacing" textLength="104" x="197" y="270.3076">Acoplamiento alto</text></g><g id="elem_GMN18"><path d="M560,449.6094 L560,467.1094 L525.33,471.1094 L560,475.1094 L560,492.3125 A0,0 0 0 0 560,492.3125 L697,492.3125 A0,0 0 0 0 697,492.3125 L697,459.6094 L687,449.6094 L560,449.6094 A0,0 0 0 0 560,449.6094 " fill="#FEFFDD" style="stroke:#181818;stroke-width:0.5;"/><path d="M687,449.6094 L687,459.6094 L697,459.6094 L687,449.6094 " fill="#FEFFDD" style="stroke:#181818;stroke-width:0.5;"/><text fill="#000000" font-family="sans-serif" font-size="13" lengthAdjust="spacing" textLength="116" x="566" y="468.1045">Mezcla persistencia</text><text fill="#000000" font-family="sans-serif" font-size="13" lengthAdjust="spacing" textLength="45" x="566" y="484.4561">y l&#243;gica</text></g><!--link App to ProductsResource--><g id="link_App_ProductsResource"><path codeLine="41" d="M533.7,84.8094 C467.85,97.3094 302.04,132.3494 173.5,189.6094 C167.72,192.1794 167.1772,192.2615 161.3872,195.3415 " fill="none" id="App-to-ProductsResource" style="stroke:#181818;stroke-width:1.0;"/><polygon fill="#181818" points="156.09,198.1594,165.9143,197.4641,160.5043,195.8112,162.1572,190.4012,156.09,198.1594" style="stroke:#181818;stroke-width:1.0;"/><text fill="#000000" font-family="sans-serif" font-size="13" lengthAdjust="spacing" textLength="43" x="299.5" y="156.1045">registra</text></g><!--link App to CategoriesResource--><g id="link_App_CategoriesResource"><path codeLine="42" d="M539.36,111.9994 C523.7,133.9294 506.0476,158.6471 487.5176,184.5871 " fill="none" id="App-to-CategoriesResource" style="stroke:#181818;stroke-width:1.0;"/><polygon fill="#181818" points="484.03,189.4694,492.5163,184.471,486.9363,185.4008,486.0066,179.8209,484.03,189.4694" style="stroke:#181818;stroke-width:1.0;"/><text fill="#000000" font-family="sans-serif" font-size="13" lengthAdjust="spacing" textLength="43" x="518.5" y="156.1045">registra</text></g><!--link App to FavoritesResource--><g id="link_App_FavoritesResource"><path codeLine="43" d="M576.38,111.9994 C585.78,133.9294 596.096,158.0147 607.216,183.9547 " fill="none" id="App-to-FavoritesResource" style="stroke:#181818;stroke-width:1.0;"/><polygon fill="#181818" points="609.58,189.4694,609.7104,179.6214,607.61,184.8738,602.3575,182.7734,609.58,189.4694" style="stroke:#181818;stroke-width:1.0;"/><text fill="#000000" font-family="sans-serif" font-size="13" lengthAdjust="spacing" textLength="43" x="596.5" y="156.1045">registra</text></g><!--link App to AuthenticationResource--><g id="link_App_AuthenticationResource"><path codeLine="44" d="M591.15,97.1094 C636.96,125.0994 722.27,177.2112 779.9,212.4212 " fill="none" id="App-to-AuthenticationResource" style="stroke:#181818;stroke-width:1.0;"/><polygon fill="#181818" points="785.02,215.5494,779.4254,207.4438,780.7533,212.9426,775.2545,214.2705,785.02,215.5494" style="stroke:#181818;stroke-width:1.0;"/><text fill="#000000" font-family="sans-serif" font-size="13" lengthAdjust="spacing" textLength="43" x="692.5" y="156.1045">registra</text></g><!--link ProductsResource to DatabaseConnection--><g id="link_ProductsResource_DatabaseConnection"><path codeLine="46" d="M156.24,296.8894 C162.07,300.5294 167.88,304.1394 173.5,307.6094 C235.72,346.0094 301.3549,385.6427 354.6949,417.6427 " fill="none" id="ProductsResource-to-DatabaseConnection" style="stroke:#181818;stroke-width:1.0;"/><polygon fill="#181818" points="359.84,420.7294,354.1801,412.6693,355.5524,418.1571,350.0645,419.5294,359.84,420.7294" style="stroke:#181818;stroke-width:1.0;"/><text fill="#000000" font-family="sans-serif" font-size="13" lengthAdjust="spacing" textLength="100" x="248.5" y="352.1045">usa directamente</text></g><!--link CategoriesResource to DatabaseConnection--><g id="link_CategoriesResource_DatabaseConnection"><path codeLine="47" d="M442.5,307.8294 C442.5,331.5594 442.5,353.4694 442.5,379.3794 " fill="none" id="CategoriesResource-to-DatabaseConnection" style="stroke:#181818;stroke-width:1.0;"/><polygon fill="#181818" points="442.5,385.3794,446.5,376.3794,442.5,380.3794,438.5,376.3794,442.5,385.3794" style="stroke:#181818;stroke-width:1.0;"/><text fill="#000000" font-family="sans-serif" font-size="13" lengthAdjust="spacing" textLength="100" x="443.5" y="352.1045">usa directamente</text></g><!--link FavoritesResource to DatabaseConnection--><g id="link_FavoritesResource_DatabaseConnection"><path codeLine="48" d="M591.34,307.7194 C579.11,323.5294 565.57,340.4594 552.5,355.6094 C543.86,365.6294 538.6662,371.5066 529.3062,381.6166 " fill="none" id="FavoritesResource-to-DatabaseConnection" style="stroke:#181818;stroke-width:1.0;"/><polygon fill="#181818" points="525.23,386.0194,534.2795,382.1326,528.6268,382.3504,528.4091,376.6977,525.23,386.0194" style="stroke:#181818;stroke-width:1.0;"/><text fill="#000000" font-family="sans-serif" font-size="13" lengthAdjust="spacing" textLength="100" x="568.5" y="352.1045">usa directamente</text></g><!--SRC=[hLD1Ri8m4Bpd5NjiXVW0XqeHgBUgY4ez8Q6jiuHLZUtQQwIswgju0X_hfX0495KvDATuF3CUpoR2OWdA-9PPo4YE28-HQtPeYy9OJ0dA4E2p07q6CRkRs-AhtPcWu0ic6dldLCpUjKIpHvJyiwn95Y7wAXj9BPPmGnsm8HeKgdraEgTsuOQyn8rYSi4zHOzffuUpPfHyZeRQh6hJYeDFxVkGqsA3bgk5-5Swk_RucEGwgq55beJ-DhvlO_-pRvbbHKvOAzGPNPeV79NTJ7eulEisDO98DIU9UEJqbD33wjweX_HBl1DcqKdKw7e-ln7aX51nr3MkrPIAdg3NYxlvhzSMpWk1_amh0R_iA_MPlKN3kws3fzbqxYOvM6rXZrG4gCNCNMbyiBXcDVM0Llo5SM-Q1_hGsKEWcBH2SePnxjx1xhQrdl0D]--></g></svg>